<?xml version="1.0" encoding="UTF-8"?>
<svg id="Layer_2" data-name="Layer 2" xmlns="http://www.w3.org/2000/svg" viewBox="0 0 443.96 231.61">
  <defs>
    <style>
      .cls-1 {
        fill: #00ab53;
      }
    </style>
  </defs>
  <g id="Line">
    <path class="cls-1" d="M0,0h4.25v231.3H0V0Z"/>
  </g>
  <g id="Simplified_Coat_of_Arms" data-name="Simplified Coat of Arms">
    <path d="M93.47,38.85h-.1s-.1-.02-.1-.02l-.25-.69-.25-.69c.12-.15.21-.35.22-.54s-.05-.37-.23-.5c-.25-.1-.72-.54-1.18-.84s-.91-.43-1.12.08c-.09.03-.41.06-.72.11s-.61.12-.65.22c-.26-.42-.51-.85-.73-1.3s-.41-.92-.58-1.42c.11-.57.92-1.22,1.71-1.72s1.55-.86,1.55-.86c0,0-.22-.31-.48-.71s-.56-.88-.73-1.23c-.08.17-.15.22-.25.25s-.21.03-.38.1c.85-1.5,1.36-3.24,1.38-4.96s-.45-3.41-1.57-4.83c-.11-.25-.15-.53-.18-.82s-.06-.57-.17-.81c-.19-.26-.36-.64-.56-.97s-.44-.61-.78-.66c0,.45-.03.89,0,1.32s.12.86.33,1.27c.23.29.07.55-.18.69s-.61.15-.78-.08c.32-.04.51-.09.59-.18s.05-.21-.06-.39c-1.4-.31-2.48.02-3.56.47s-2.13,1.02-3.46,1.17c-.12,0-.23.02-.33.07s-.18.12-.25.23c-.82,1.11-.31,1.28.45,1.36s1.76.07,1.92.8c-.31.25-.48.3-.65.26s-.34-.16-.62-.23c-.41.02-.82.09-1,.24s-.12.4.4.75c-.32.5-.47.83-.7,1.05s-.55.33-1.19.37c.28.39.39.87.45,1.37s.06,1,.14,1.45c-.46.09-.84.24-1.11.49s-.43.61-.44,1.1c-.21.05-.42.02-.62.03s-.38.07-.53.29c-.29-.24-.6-.38-.92-.46s-.66-.11-1.01-.11c-.17-.12-.45-.33-.81-.57s-.78-.49-1.22-.72c.09-.32.17-.64.25-.94s.16-.6.24-.88c.13-.08.42-.27.72-.46s.58-.37.7-.45c-.06-.12-.21-.43-.37-.74s-.31-.62-.37-.76c.82-2.83,1.37-4.32,1.81-5.13s.78-.91,1.2-.97l.02-.08.02-.08-1.52-.49-1.52-.49-.03.1-.03.1c.38.28.64.65.75,1.09s.09.94-.09,1.48c-.41-.18-.73-.46-.93-.78s-.3-.69-.26-1.03c0,0-.06-.02-.11-.03s-.09-.03-.09-.03l-.51,1.69-.51,1.69s.04.01.08.02.08.02.09.03c.2-.29.47-.52.8-.65s.7-.18,1.1-.12c-.47,1.5-1.77,2.01-2.85,1.84s-1.95-1.05-1.57-2.32c.27-.52.66-.62.92-.44s.39.62.15,1.17c1.19-.42,1.43-1.48,1.12-2.18s-1.17-1.05-2.18-.03c.34-.69.6-1.3.67-1.91s-.04-1.21-.46-1.88c-.55.35-.89.85-1.07,1.46s-.2,1.36-.09,2.21c-.67-1.53-1.59-1.51-2.11-.9s-.62,1.8.33,2.6c-.17-1.14.44-1.33.86-1.01s.65,1.16-.3,2.07c-.91.64-1.92.59-2.71.1s-1.37-1.43-1.4-2.56c.52.05.99.22,1.33.49s.57.61.63,1c0,0,.06,0,.1,0s.09,0,.09,0l.06-1.93.06-1.93s-.05,0-.11,0-.12,0-.13,0c-.08.39-.33.75-.7,1.02s-.85.44-1.39.45c.04-.6.23-1.13.52-1.53s.68-.67,1.12-.75v-.22h-4.46v.22c.44.08.83.35,1.12.75s.48.93.52,1.53c-.54,0-1.02-.18-1.39-.45s-.62-.63-.7-1.02c0,0-.07,0-.13,0s-.11,0-.11,0l.06,1.93.06,1.93s.04,0,.09,0,.09,0,.1,0c.05-.39.28-.74.63-1s.81-.44,1.33-.49c-.03,1.13-.61,2.07-1.4,2.56s-1.8.54-2.71-.1c-.95-.92-.72-1.75-.3-2.07s1.04-.13.86,1.01c.95-.8.84-1.99.33-2.6s-1.44-.63-2.11.91c.11-.85.09-1.59-.09-2.21s-.52-1.11-1.07-1.46c-.42.67-.54,1.27-.46,1.88s.34,1.22.67,1.91c-1.02-1.02-1.88-.67-2.18.03s-.06,1.77,1.13,2.18c-.25-.55-.11-.99.15-1.17s.65-.08.92.44c.38,1.27-.49,2.14-1.57,2.32s-2.38-.34-2.85-1.84c.4-.07.78-.02,1.1.12s.6.36.8.65c0,0,.05-.01.09-.03s.08-.02.08-.02l-.51-1.69-.51-1.69s-.05.01-.09.03-.1.03-.11.03c.04.34-.05.71-.26,1.03s-.53.6-.93.78c-.17-.54-.2-1.05-.09-1.48s.37-.81.75-1.09l-.03-.1-.03-.1-1.52.49-1.52.49.02.08.02.08c.42.06.76.17,1.2.97s.99,2.3,1.81,5.13c-.07.14-.22.45-.37.76s-.3.61-.37.74c.12.07.41.26.7.45s.59.38.72.46c.07.26.14.53.22.8s.15.56.23.85c0,0,0,0,0,0s0,0,0,0c0,.01,0,.02,0,.02s0,0,0-.01c-2.05.96-2.84,1.76-3.51,2.28s-1.23.75-2.8.56c-.14.33-.28.65-.46.95s-.41.57-.73.79c-.06-.5-.2-.94-.4-1.35s-.46-.78-.75-1.13c-.15-.17-.32-.16-.51-.1s-.4.16-.62.18c-.43.93-.79.98-1.23.91s-.97-.24-1.72.24c.03.43.08.87.18,1.29s.25.84.49,1.24c-.56-.04-1.07-.14-1.54-.29s-.88-.36-1.25-.62c-1.67,1.87-3.39,3.7-5.04,5.59s-3.24,3.81-4.67,5.87c-.76,1.01-2.17,1.22-3.25.83s-1.83-1.38-1.29-2.77c.25-1.02,1.11-1.42,1.88-1.31s1.46.72,1.37,1.73c.73-.81.86-1.61.53-2.17s-1.12-.87-2.23-.69c1.02-.44,1.83-.24,2.62-.22s1.55-.14,2.47-1.28c-.7.02-1.35-.09-2-.15s-1.29-.1-1.99.06c.88-.53,1.93-.4,2.95-.51s2-.44,2.76-1.9c-.66.07-1.28.24-1.92.42s-1.27.37-1.95.47c4.09-3.9,4.16-5.94,3.34-7.43s-2.54-2.43-2.04-4.11c-.32.27-.57.54-.71.84s-.15.61,0,.98c-.92-.38-2.05-.52-3.05-.83s-1.86-.82-2.23-1.93c-.09,1.58.21,2.32.84,2.74s1.57.53,2.77.85c-.55-.07-1.1-.1-1.64-.17s-1.07-.16-1.59-.35c.11.71.43,1.14.88,1.38s1.04.28,1.67.21c-.62.34-.86.96-.79,1.56s.46,1.2,1.09,1.5c-.4-2.29,1.11-3.04,2.33-2.7s2.16,1.79.59,3.9c-.73,1.08-1.62,2.03-2.55,2.94s-1.9,1.79-2.78,2.73c-.17-.29-.34-.58-.56-.78s-.51-.33-.89-.29c.67.78.63,1.59.37,2.41s-.73,1.64-.9,2.44c-.26.99.05,1.91.66,2.61s1.51,1.18,2.45,1.29c-.37.44-.58.86-.61,1.26s.09.78.38,1.14c.28-1.46,1.48-2.02,2.66-2.61s2.33-1.22,2.53-2.79c.04-.19.1-.35.2-.49s.25-.26.46-.34c-.95,1.08-.28,2.75.09,4.23s.44,2.75-1.71,3.01c-.31,0-.5.17-.57.4s-.03.5.15.73c-.89-.04-1.46.1-1.83.47s-.57.95-.7,1.79c.39-.1.77-.2,1.14-.3s.74-.19,1.11-.29c-.39,1.01-1.02.98-1.52,1.15s-.87.53-.72,2.34c.36-.17.71-.35,1.05-.53s.67-.38,1-.58c.32,1.01-.49,1.3-1.01,1.74s-.76,1.03.68,2.64c.09-.3.33-.76.6-1.18s.56-.8.75-.93c-.18.51-.25,1.06-.13,1.53s.43.89,1,1.11c.03-.14.05-.26.08-.39s.05-.24.07-.36c.03,0,.04,0,.05,0s.02,0,.05,0c.08.34.13.74.24,1.11s.28.7.6.89c.11.04.19.09.26.16s.11.16.15.27c.06.19.18.31.32.38s.32.11.49.14c.21.04.35-.05.47-.19s.22-.3.38-.4c.04.27.22.42.43.57s.44.28.6.51c.12-1.31-.69-1.73-1.44-2.04s-1.41-.5-1.01-1.37c.15.53.48.74.85.86s.79.18,1.14.4c.13.22.36.42.6.49s.49,0,.65-.3c.16.12.32.24.47.35s.29.22.44.33c-.34-1.56-.92-1.86-1.53-1.97s-1.28-.04-1.79-.86c.35.02.72.29,1.1.46s.76.26,1.14-.1c.21.21.39.44.56.68s.33.49.48.74c.06-.5,0-.94-.17-1.32s-.47-.71-.86-.99c-.44-.27-.97-.17-1.47-.13s-1,0-1.37-.53c-.52-.64-.77-1.41-.82-2.2s.09-1.61.36-2.35c.25-.57.72-.96,1.2-1.34s.99-.76,1.31-1.3c-.09.48-.11,1.13.02,1.7s.43,1.06.97,1.22c-.13-.88.12-1.72.43-2.56s.69-1.66.82-2.51c.16-.22.25-.41.26-.6s-.06-.4-.21-.63c-.27-.44-.44-.92-.62-1.4s-.36-.96-.66-1.39c-.46-.64-.97-.97-1.13-1.31s.02-.69.96-1.36c-.57.88-.62,1.16-.41,1.43s.69.52,1.18,1.35c.09-.28.34-.6.45-.85s.05-.43-.47-.43c-.82-.4-.29-1.13.56-1.77s2.01-1.17,2.44-1.2c.42-.03.93-.03,1.41-.11s.94-.27,1.26-.69c-.2-.38-.4-.6-.46-.82s.01-.45.35-.84c-.23-.13-.45-.28-.62-.47s-.29-.42-.33-.72c-.22.08-.43.15-.63.22s-.42.15-.65.23c.21-.23.62-.59.99-.75s.71-.14.78.39c.01.3.17.47.37.59s.47.18.7.26c-.17.24-.39.48-.5.74s-.13.52.12.8c.18.18.32.45.49.68s.36.43.63.47c.07-.27.15-.54.22-.81s.14-.53.22-.8c.6.63.3,1.12.26,1.59s.18.93,1.83,1.5c-.06-.34-.12-.67-.15-1.01s-.04-.68,0-1.03c.79.66.62,1.2.71,1.63s.43.75,2.27.96c-.2-.24-.33-.5-.42-.76s-.15-.53-.23-.8c.31.05.58.22.83.43s.47.47.67.69c.19.29.35.51.58.59s.51.02.94-.26c.02.05.03.11.05.16s.04.1.07.13c.19.15.25.31.26.48s-.03.36-.04.56h.11c.25-.26.39-.53.44-.82s.02-.6-.06-.92c-.18-.61-.64-.67-1.11-.73s-.98-.13-1.24-.75c.35.24.7.43,1.05.51s.72.05,1.11-.15c.21.2.37.38.49.57s.22.41.33.7c.18-.65.16-1.31-.07-1.76s-.68-.68-1.36-.49c-.21.08-.37.11-.52.07s-.3-.14-.52-.33c.32.11.59.08.82,0s.44-.25.65-.39c.04.06.08.12.11.17s.06.08.09.08c.19.01.35.08.5.17s.26.23.38.37c.06-.56-.18-1.06-.58-1.39s-.96-.48-1.52-.34c-.14.68-.5.83-.93.79s-.95-.28-1.41-.38c-.71-.41-1.25-1.02-1.77-1.65s-1.02-1.29-1.64-1.8c.06-.77-.23-1.46-.72-1.94s-1.2-.77-1.97-.73c.69-.3,1.45-.16,2.05.25s1.04,1.06,1.09,1.78c.03.3.13.54.27.76s.33.43.51.65c2.34-4.71,7.29-7.68,12.74-8.72s11.4-.17,15.74,2.82h0s0,0,0,0c.37.34.76.65,1.14.96s.78.63,1.17.98c.15-.45.18-.94.34-1.25s.45-.44,1.12-.17l.13-.09.13-.09c-.14-.38-.06-.79.14-1.1s.55-.55.95-.57v.59c-.17.03-.33.13-.43.26s-.16.31-.13.49c.13-.03.26.05.34.16s.1.26.03.37c.13.07.28.09.42.07s.28-.09.38-.19c.11,0,.22.01.33.02s.22.02.33.03c-.15.36-.49.61-.87.69s-.79.01-1.09-.25h0s0,0,0,0c.06.08-.04.52-.16.96s-.25.89-.26.99c-.03.12-.1.21-.19.28s-.2.1-.32.1c.05.08.09.15.13.22s.08.14.13.21c.19-.11.42-.16.59-.25s.29-.22.27-.49c.04-.15,0-.58.02-.95s.07-.69.29-.63c.09.27.05.55.04.84s0,.57.2.84c.63-.15.8-.52,1.01-.87s.45-.72,1.21-.86c.3-.03.77-.11,1.2-.12s.83.07,1,.37c-.66-.18-1.42-.18-2.05.06s-1.13.71-1.28,1.46c-.69.16-1.33.49-1.97.78s-1.3.53-2.04.53c-.58.03-.95.4-1.18.88s-.32,1.07-.35,1.55c-.1.55-.16,1.11-.26,1.66s-.24,1.09-.48,1.61c-.12.2-.13.41-.09.61s.12.41.19.59c.22.12.42.56.56,1.05s.24,1.01.27,1.29c0,.51.43.84.95,1.13s1.13.53,1.49.85c.1-.63-.45-.86-.99-1.15s-1.05-.64-.88-1.53c.21.59.55.94.97,1.22s.9.48,1.41.77c-.16-.59-.26-1.38-.53-1.99s-.71-1.04-1.54-.92c-.32-.44-.25-.68-.13-.93s.27-.53.12-1.06c.24.07.41.15.54.25s.22.21.28.36c-.07-.02-.14-.05-.22-.07s-.16-.05-.26-.08c.03.38.2.61.44.81s.52.38.77.63c-.04-.61-.09-1.12-.27-1.54s-.49-.77-1.07-1.07c-.32-.3-.3-.79-.2-1.3s.28-1.06.26-1.47c-.01-.12.37-.37.79-.59s.86-.39.98-.36c.57.08,1.16.07,1.75.08s1.16.04,1.72.18c.55.18.59-.34.72-.74s.33-.69,1.23-.05c-.65-.19-.78.07-.86.38s-.12.69-.59.72c-.33,0-.63-.01-.94-.03s-.62-.04-.96-.05c1.18,2.62,3.07,3.55,4.86,4.41s3.45,1.64,4.17,3.98c.6-.53.7-.79.6-1.06s-.38-.54-.55-1.1c1.36.91.73,1.88,0,3.03s-1.54,2.46-.56,4.05c-.06-.18.21-.64.53-1.09s.65-.9.72-1.05c.11-.17.26-.26.42-.27s.31.04.43.16l.2-.41.2-.41c-.37-.2-.22-.73.03-1.27s.61-1.09.65-1.33c.07-.15.18-.26.31-.31s.26-.06.39,0l.18-.51.18-.51c-.35-.09-.39-.56-.35-1.06s.15-1.04.12-1.27c-.49-.44-.93-.93-1.34-1.45s-.8-1.04-1.18-1.55l.23-.04.23-.04c-.03.11-.02.23.02.34s.11.2.21.27c.17.07.57.41.98.7s.83.52,1.03.38l.1.27.1.27c-.16.04-.26.18-.31.34s-.07.35-.07.5c.09.07.18.14.26.21s.18.14.26.22c.01-.05.01-.21.02-.35s.03-.29.08-.33c.08.1.18.15.29.16s.22-.03.3-.11c.08.04.07.33.04.63s-.07.6-.06.67c.09.1.19.21.27.31s.18.21.26.32c-.04-.25.1-.85.14-1.4s-.02-1.05-.44-1.09ZM79.78,21.16c.09,0,.17-.02.25-.03s.17-.02.27-.03c-.17-.12-.17-.27-.1-.36s.23-.11.37.01c.34.26.17.61-.1.77s-.64.13-.7-.36ZM52.56,26.11l-.72-.46-.72-.46.38-.76.38-.76,1.03.37,1.03.37-.69.85-.69.85ZM57.24,24.93c-1.12.23-1.8-.28-1.92-.89s.33-1.33,1.45-1.54c1.12-.23,1.8.28,1.92.89s-.33,1.33-1.45,1.54ZM62.3,24.74l-1.1-.78-1.1-.78,1.11-.78,1.11-.78,1.1.78,1.1.78-1.11.78-1.11.78ZM69.33,24.05c-.13.79-1.08,1.01-1.96.84s-1.67-.73-1.5-1.51c.13-.79,1.08-1.01,1.96-.84s1.67.73,1.5,1.51ZM70.66,24.41l1.03-.37,1.03-.37.38.76.38.76-.72.46-.72.46-.69-.85-.69-.85ZM87.67,17.17c.2.23.35.46.44.71s.14.51.14.79c-.2-.07-.34-.21-.43-.45s-.14-.58-.15-1.04ZM85.81,20.09c-.27.19-.53.42-.79.51s-.52.04-.8-.33c-.06.01-.12.02-.18.04s-.12.02-.18.04c.41-.64.6-.9.84-.91s.52.25,1.12.66ZM81.25,24.73c.18.06.36.15.54.16s.36-.02.54-.21c-.18,0-.29-.06-.38-.15s-.14-.21-.19-.33c-.09-.6.36-.8.93-.83s1.24.09,1.6.14c.92.56,2.17.66,3.05.29s1.39-1.22.85-2.56c.43.26.57.76.52,1.27s-.28,1.01-.61,1.3c-.85.46-1.69.52-2.52.69s-1.66.45-2.51,1.35c-.13-.41-.44-.61-.76-.59s-.66.26-.83.72c-.16.01-.26.01-.37.02s-.2,0-.35.02c-.03-.24.05-.45.16-.65s.25-.4.32-.63ZM87.69,32.64s-.1.12-.14.18-.09.11-.09.11c-.71-.81-2.26-1.68-3.9-2.31s-3.35-1.02-4.39-.87c0,0,0-.06.01-.14s.02-.17.02-.23h0s0,0,0,0l.39-.25.39-.25-.34-.28-.34-.28s-.1-.74-.21-1.43-.22-1.37-.22-1.37l.59-.02.59-.02s-.11.12-.21.3-.22.4-.23.59c.03.02.06.05.09.08s.05.07.07.11c.12-.05.24-.2.34-.33s.16-.26.16-.26l.06.81.06.81s-.08-.12-.19-.24-.25-.26-.37-.31c0,.03-.02.06-.03.09s-.03.05-.05.07c.17.54.65.82,1.08.85s.82-.18.83-.64c-.03-.24-.17-.34-.31-.31s-.26.17-.24.42c-.43-.34-.35-.78-.11-1s.65-.22.89.33c-.03-.31-.03-.56.03-.77s.2-.37.45-.53c.16.2.23.4.22.62s-.11.47-.29.78c.53-.49.89-.32,1,0s-.04.8-.53.92c.24-.44.01-.58-.21-.51s-.44.37-.19.82c.23.36.63.51,1.02.47s.77-.25.97-.64c-.01-.02-.03-.05-.04-.07s-.02-.05-.02-.08c-.2-.04-.44.03-.64.1s-.34.16-.34.16l.27-.74.27-.74s.06.16.15.34.24.39.4.49c.03-.03.06-.05.1-.07s.08-.03.12-.04c.03-.2-.05-.45-.14-.65s-.19-.36-.19-.36l.91.35.91.35s-.18.05-.39.13-.45.21-.56.38c.02.03.04.07.05.11s.02.08.02.12c.19.04.44-.02.64-.09s.36-.15.36-.15l-.33.72-.33.72s-.05-.16-.14-.34-.22-.4-.39-.5c-.02.02-.05.03-.07.04s-.05.02-.08.03c-.13.42,0,.83.26,1.12s.66.44,1.07.33c.5-.15.55-.52.45-.72s-.38-.25-.51.23c-.27-.42-.04-.86.26-1.02s.69-.04.73.66c.09-.34.19-.58.34-.76s.34-.27.6-.31c.07.28.05.49-.05.68s-.27.37-.52.58c.56-.24.86.03.88.36s-.24.69-.79.65c.19-.18.2-.36.12-.47s-.26-.13-.44.03c-.33.34-.18.75.16,1.02s.89.39,1.36.15c0-.03,0-.06.01-.09s.02-.06.03-.08c-.12-.08-.32-.13-.49-.15s-.31-.03-.31-.03l.58-.43.58-.43s-.03.13-.06.3-.03.36.03.5c.04,0,.09,0,.13,0s.09.02.13.03c.13-.13.19-.36.23-.56s.04-.37.04-.37l.44.54.44.54s-.55.25-1.14.54-1.24.61-1.43.76l-.3-.03-.3-.03.15.43.15.43h0s0,0,0,0ZM92.4,37.09c-.14-.01-.26.04-.34.14s-.11.23-.07.38c-.01,0-.03,0-.04,0s-.03-.01-.04-.02l-.64-.44-.64-.44s-.07-.07-.08-.12,0-.1.02-.15c.12,0,.25-.04.34-.11s.15-.17.13-.32c.05.06.42.28.76.5s.66.47.6.58ZM77.18,31c.1,0,.2-.04.27-.1,0,0-.08.32-.16.64s-.16.64-.16.64c-.02.1-.09.13-.17.13s-.17-.03-.24-.05c-.04-.05-.09-.1-.14-.15s-.1-.1-.15-.15c.03-.04.1-.42.2-.79s.19-.72.27-.7c-.04.06-.06.13-.05.21s.04.14.09.2c.06.09.15.13.25.14ZM58.22,68.95c.26.63.62,1.22,1.21,1.75-1.17.05-2.32.04-3.45-.1s-2.24-.41-3.34-.87c-.54-.33-.81-1.08-1.09-1.91s-.58-1.73-1.16-2.37c.67-.14.85.94,1.26,2.03s1.07,2.2,2.69,2.13c-1.48-.3-1.56-1.32-.82-2.09s2.31-1.29,4.12-.57c.16.7.31,1.38.57,2.01ZM71.41,67.43c.42-1.09.59-2.16,1.26-2.03-.59.63-.88,1.54-1.16,2.37s-.55,1.58-1.09,1.91c-1.09.46-2.2.73-3.34.87s-2.28.15-3.45.1c.59-.52.95-1.11,1.21-1.75s.41-1.31.57-2.01c1.82-.72,3.38-.2,4.12.58s.66,1.8-.82,2.09c1.62.07,2.28-1.04,2.69-2.13ZM92.51,40.63l.05-.59c.12.1.24.21.35.32s.22.22.33.34c-.02.07-.01.25-.03.42s-.04.33-.14.36c-.06-.08-.15-.14-.25-.16s-.21,0-.29.07c-.02-.02-.04-.05-.05-.08s-.02-.06-.01-.1l.05-.59ZM91.52,45.62s-.03.03-.04.04c.05-.17-.02-.33-.13-.42s-.28-.12-.43-.03c.05-.05.22-.49.41-.9s.39-.8.5-.75c.03.08.1.14.18.18s.17.05.25.04c.12.07-.05.48-.25.89s-.43.83-.44.92c0,.02-.02.03-.03.05ZM101.86,43.33c.14,1.57-.09,2.97-2.29,3.76.17.44.26.96.21,1.45s-.26.95-.69,1.27c.29-1.38-.63-2.06-1.77-2.66s-2.51-1.12-3.12-2.21c-.11.56-.42,1.08-.68,1.61s-.47,1.06-.37,1.65c.1,1.36.86,2.01,1.49,2.46s1.15.72.79,1.33c-1.58,3.02-1.36,4.53-1.12,5.62s.49,1.77-1.04,3.13c.04-.45-.06-.88-.1-1.3s-.02-.84.29-1.25c.04.08.07.16.11.24s.08.17.14.29c.01-.22.02-.42,0-.62s-.07-.38-.17-.59c-.21.34-.26.6-.37.81s-.28.38-.72.54c.02.34-.15.63-.29.93s-.25.59-.11.95c.17.78-.26,1.24-.87,1.55s-1.41.45-1.96.59c.18-.47.41-.9.65-1.3s.51-.8.77-1.21c-.66.2-.93.78-1.21,1.35s-.57,1.11-1.27,1.22c.12-.4.31-.76.51-1.11s.42-.7.58-1.08c.23-.44.66-.67,1.07-.93s.8-.54.98-1.05c.03-.32.02-.56.05-.77s.14-.42.4-.68c.62-.72,1.01-1.53,1.2-2.39s.16-1.77-.06-2.68c-.22-.5-.6-.89-1.02-1.26s-.88-.7-1.26-1.09c.33.54.41,1.3.29,2.02s-.41,1.39-.83,1.75c.14-.64.09-1.2-.12-1.75s-.59-1.08-1.1-1.69c0,0,0,0-.02-.02s-.02-.03-.04-.05l.08-.17.08-.17c.11.07.25.08.37.04s.25-.13.34-.26c.09-.23.51-.71.83-1.19s.57-.98.28-1.24l.22-.47.22-.47c.14.09.29.12.44.07s.27-.16.36-.33c.05-.26.43-.84.68-1.39s.38-1.09-.09-1.26l.23-.64.23-.64c.22.07.4,0,.53-.14s.2-.35.18-.57c2.03,4.02,4.19,4.92,5.53,4.41s1.86-2.43.61-4.03c-.55-.62-1.37-.66-2-.34s-1.08.99-.87,1.79c-.78-.49-1.01-1.26-.78-1.9s.92-1.15,1.98-1.14c-.98-.42-1.85-.52-2.59-.82s-1.33-.8-1.78-2c.57.36,1.2.49,1.84.61s1.27.23,1.86.55c-4.81-4.99-5.03-7.1-4.13-8.55s2.92-2.23,2.57-4.54c.34.14.57.33.71.6s.17.61.12,1.03c.87-.31,1.91-.47,2.84-.79s1.74-.8,2.18-1.75c.04,1.58-.29,2.37-.94,2.8s-1.64.51-2.91.69c.32.05.94.15,1.63.18s1.45,0,2.06-.22c-.7,1.44-1.33,1.72-2.04,1.63s-1.5-.57-2.52-.65c.94.18,1.65.76,1.88,1.44s-.03,1.45-1.03,1.98c.39-1.51-.38-2.44-1.3-2.62s-1.99.38-2.2,1.83c.28,1.82,1.32,3.24,2.53,4.58s2.6,2.59,3.55,4.08c.14-.36.29-.69.5-.97s.48-.49.86-.61c-.71,1.43-.19,3.16-.05,4.72ZM88.77,48.98s-.05,0-.08,0c-.15-.09.07-.47.34-.85s.58-.77.6-.86c.05-.08.11-.1.18-.1s.13.04.18.09c.02.06.06.12.1.16s.1.07.17.09c.06.05-.18.43-.44.81s-.54.76-.56.81c-.02.04-.06.06-.09.08s-.07.02-.11.02c-.02-.05-.05-.1-.09-.13s-.08-.06-.13-.08c-.02-.01-.05-.02-.07-.03ZM88.25,49.32l.04.03v.02s-.02.02-.02.02c0-.02-.02-.03-.03-.05s-.02-.03-.03-.05l.04.03ZM44.98,55.24c-.26.02-.53.06-.81-.03.23.33.4.71.58,1.08s.39.74.72,1.06c-.9.08-1.61.08-2.15-.17s-.9-.77-1.13-1.72c-.19-.05-.38-.09-.57-.14s-.38-.09-.57-.14c.03.34.04.7.1,1.06s.16.72.37,1.06c-2.05-.83-2.3-1.3-2.3-1.74s.25-.84-.78-1.52c-.14.29-.21.58-.25.89s-.04.63-.05.97c-.75-.44-1.31-.73-1.56-1.13s-.2-.91.29-1.8c-.24-.08-.47-.3-.57-.54s-.07-.5.2-.66c.55-.19.86-.62,1-1.13s.11-1.09,0-1.58c0-.31-.23-.46-.45-.61s-.4-.3-.29-.62c.13-.65-.21-1.28-.49-1.9s-.49-1.26-.11-1.92c1.54.21,2.15.1,2.77.16s1.25.29,2.83,1.2c.23.02.33.15.37.31s0,.36-.04.52c-.1.12-.12.24-.11.36s.05.24.07.36c.15.7.2,1.44.32,2.15s.29,1.41.7,2.02c-1.41-.45-1.66-1.03-1.68-1.7s.18-1.42-.32-2.24c.36,1.29-.02,2.23-.36,2.95s-.65,1.21-.12,1.6c.64.45,1.48.89,2.3,1.04s1.63.01,2.22-.72c.34.58.67,1.14,1,1.7s.66,1.12.99,1.69c-.21.1-.44.12-.67.12s-.46-.05-.68-.09c-.23-.21-.49-.22-.75-.2ZM85.8,43.92c.73.04,1.25.2,1.96-.3.15.12.28.29.36.48s.1.39.03.55c-.3.5-.5,1.04-.65,1.6s-.27,1.12-.41,1.68c-1.62,1.02-1.62,1.84-1.43,2.49s.58,1.15-.24,1.54c-4.66.54-5.66,1.16-6.09,1.76s-.29,1.19-2.65,1.66c.25-.24.51-.74.79-1.16s.58-.74.91-.62c-.02.07-.05.14-.08.23s-.06.18-.1.29c.18-.12.3-.26.4-.41s.18-.3.29-.44c-.18-.04-.36.01-.52.04s-.32.03-.45-.12c.48-1.21,1.45-1.55,2.51-1.75s2.23-.25,3.11-.87c-.43-.81-.67-1.21-.8-1.7s-.13-1.07-.07-2.26c-.28.87-.29,1.52-.52,2.04s-.68.9-1.82,1.22c.53-.57.8-1.26,1.02-1.98s.38-1.47.69-2.14c-.05-.27-.04-.47.04-.61s.26-.22.54-.27c1.53-.94,2.46-1.01,3.19-.97ZM33.86,25.18c-.28-.28-.51-.67-.69-.98.26-.22.7-.41,1.06-.54s.67-.2.67-.2c.01-.06.04-.22.09-.32s.12-.16.21-.01c.05.2.1.34.18.39s.18.04.33-.07c.8-.67,1.69-1.13,2.63-1.47s1.94-.57,2.94-.75c-.05-.15-.14-.3-.14-.39s.09-.1.4.02c0,0,.32-.15.73-.33s.91-.37,1.28-.47c.21.47.28.94.22,1.32s-.25.68-.54.81c-.11-.14-.23-.28-.34-.42s-.23-.29-.36-.44c.04-.17.16-.29.28-.41s.27-.25.35-.43c-.27.05-.47.15-.65.29s-.33.32-.47.54c.55.44.91,1.02,1.01,1.63s-.08,1.24-.59,1.79c-.23-.06-.5-.06-.71.03s-.36.27-.37.57c.19-.2.37-.26.55-.25s.36.11.54.21c.18.79-.04,1.18-.43,1.35s-.98.13-1.53.04c-.32-.35-.2-.63-.03-.91s.4-.55.28-.91c-.36-.03-.69.07-1.02.2s-.64.3-.99.42c-.06-.45-.19-.89-.2-1.31s.09-.84.47-1.22c.48.09.86.34,1.17.68s.53.77.7,1.2c.41-.07.26-.44-.03-.84s-.73-.81-.91-.95c.56.04.9.08,1.12-.05s.29-.43.32-1.07c-.64.01-1,.47-1.35.73s-.71.3-1.36-.52c.04,1.1-.28,1.31-.77,1.36s-1.12-.05-1.71.42c.13.02.24.08.33.15s.17.16.25.25c.24.28.5.3.72.18s.41-.38.49-.67c.03,0,.07,0,.11,0s.07,0,.11,0c.16,1.54.21,1.85.43,1.93s.62-.07,1.48.56c.13.3-.03.54-.27.76s-.54.42-.69.63c-.55.39-1.22,0-1.49-.44s-.13-.96.95-.85c-.24-.26-.48-.36-.71-.31s-.47.27-.72.64c-.82-.04-1.38-.33-1.7-.8s-.39-1.12-.21-1.88c-.21-.08-.45-.1-.68-.06s-.47.14-.69.3c.18.03.36.06.53.09s.34.06.52.09c-.01.17-.02.33-.03.48s-.02.31-.03.47c-.42.16-.76,0-1.04-.28ZM43.3,23.87c.11-.35.15-.73.1-1.14.24,0,.43-.08.58-.21s.26-.32.34-.55c.16.2.24.41.24.65s-.08.51-.23.84c.44-.05.81.2,1.1.56s.5.81.62,1.18c-.45-.3-.92-.44-1.39-.51s-.96-.06-1.44-.04c0,.02,0,.03-.01.05s0,.03-.01.05c1.16.18,2,.57,2.54,1.22s.76,1.54.68,2.73c-.37-.63-.88-1.05-1.47-1.38s-1.25-.56-1.91-.8c1.03.76,1.94,1.38,2.4,2.15s.49,1.7-.25,3.1c-.33-.86-.88-1.6-1.45-2.32s-1.17-1.42-1.62-2.22c.3-.36.51-.72.63-1.12s.13-.81.04-1.26c.23-.3.41-.63.52-.98ZM35.55,28.84c.23-.45.57-.87.82-1.29-.32.2-.63.42-.9.69s-.51.58-.7.98c-.1-.4-.22-.77-.25-1.13s.03-.73.29-1.11c-.33.11-.62.02-.82-.17s-.32-.49-.29-.78c.24.1.43.15.64.16s.41-.03.67-.11c.18.29.43.5.73.65s.64.25.99.33c.11.02.21.06.31.12s.17.14.23.26c.2.25.48.4.77.53s.62.24.92.41c.32.83.31,1.73.35,2.63s.12,1.79.62,2.6c-1.88-.5-2.43-1.13-2.51-1.97s.31-1.9.3-3.27c-.21.6-.53,1.18-.76,1.78s-.36,1.22-.19,1.87c-.34-.14-.61-.4-.83-.71s-.39-.67-.53-1.01c-.2-.53-.08-1,.15-1.45ZM44.96,50.58c-1.16-2.96-1.59-6.21-1.21-9.44.11.06.2.1.28.14s.14.07.19.1c-.2,3.05.12,5.95,1.07,8.61s2.5,5.09,4.77,7.2c.14.18.38.34.52.52s.19.36-.07.6c-2.51-2.09-4.39-4.76-5.55-7.72ZM93.09,24.88c.29.73.2,1.63-.16,2.75-.28-.61-.87-1.03-1.35-1.5s-.83-.98-.63-1.75c.16.13.31.24.46.36s.3.24.47.37c0-.39-.32-.68-.58-.97s-.46-.58-.25-1c1.11.43,1.77.99,2.05,1.72ZM41.7,28.64c-.13-.51-.44-1.07-.58-1.45.14-.13.27-.12.39-.07s.24.12.36.09c.19.4.38.8.58,1.19s.38.8.58,1.2c-.09.09-.19.11-.3.1s-.23-.05-.35-.09c-.14.46-.4.8-.73.94s-.73.1-1.15-.2c-.09.06-.18.13-.27.19s-.18.13-.28.2c-.13-.45-.26-.88-.39-1.31s-.25-.85-.37-1.27c.1-.11.19-.22.29-.33s.2-.22.31-.35c.18.42.22,1.01.37,1.49s.41.83,1.01.8c.61-.17.67-.64.54-1.15ZM89.59,19.07c-.36-.16-.58-.42-.46-.99.26-.11.45-.26.57-.47s.18-.45.18-.73c.2.12.35.33.42.6s.08.58.01.9c.66.1,1.1.42,1.44.85s.59.97.87,1.51c-.5-.31-1.14-.3-1.71-.38s-1.07-.26-1.28-.94c.2.01.39.02.58.03s.38.02.57.03c0-.02,0-.03,0-.05s0-.03,0-.05c-.37-.12-.85-.16-1.21-.32ZM90.82,27.78c.12.18.24.37.36.55.02,0,.03-.01.05-.02s.03-.01.05-.02c-.11-.41-.32-.81-.45-1.23s-.17-.83.05-1.26c.73.64,1.1,1.42,1.17,2.23s-.14,1.68-.59,2.49c-.26-.51-.6-1.03-.84-1.57s-.38-1.11-.24-1.71h.05s.03-.01.05-.02c.12.18.24.37.36.55ZM92.42,21.44c.53.51.82,1.25.9,2.31-.46-.25-1.1-.41-1.62-.67s-.93-.63-.92-1.28c.2.06.39.13.6.2s.42.14.64.21c-.27-.4-.61-.53-.95-.71s-.68-.42-.94-1.03c1,.18,1.76.47,2.29.99ZM84.44,17.61c-.26-.28-.47-.61-.65-.95.62.02,1.48-.03,2.18.14s1.24.56,1.24,1.46c-.23.16-.55.15-.89.1s-.68-.14-.96-.14c-.37-.11-.67-.33-.92-.61ZM77.91,46.53c-.68.22-1.35-.2-1.19-1.13.55.31,1.03.46,1.36.34s.52-.49.48-1.23c-.13-.03-.25-.06-.38-.09s-.26-.06-.4-.1c0-.1-.02-.2-.02-.3s-.02-.21-.03-.34c.25.02.49.04.72.06s.46.04.69.05c.14,1.65-.55,2.52-1.23,2.74ZM78.26,38.28c.05.14.1.28.14.41-.15.19-.31.38-.46.57s-.31.38-.47.58c.22.15.45.27.69.37s.49.18.73.26c0,.09.02.17.03.26s.02.18.03.3c-1.27-.44-1.9-.73-2.01-1.17s.31-1.02,1.15-2.04c.06.17.11.33.16.47ZM70.23,30.11c-.03-.09-.06-.19-.1-.29-.19.26-.38.44-.61.57s-.49.19-.83.21c.21-.35.49-.62.76-.91s.52-.6.66-1.01c.34.27.65.43.85.65s.27.5.13.99c-.12,0-.24.02-.37.03s-.26.02-.4.03c-.03-.09-.06-.18-.09-.27ZM74.12,34.88s-.03,0-.04-.01c0-.36,0-.72,0-1.08s0-.72,0-1.08c-.03-.25.12-.35.31-.42s.44-.09.59-.18c.34.25.19.78-.07,1.33s-.63,1.12-.75,1.44c-.01,0-.03,0-.04-.01ZM85.23,16.29c-.43-.17-.75-.47-.76-1.08.62,0,1.01.06,1.33.23s.57.48.92.98c-.01.02-.03.04-.04.05s-.03.04-.04.05c-.45-.05-.98-.08-1.41-.25ZM84.63,13.82c.31.22.54.56.7.99-.6.03-1.08-.08-1.4-.3s-.49-.56-.47-.99c.47-.02.86.08,1.17.3ZM79.07,23.03c-.55.11-1.02.02-1.16-.66.49.11.93.02,1.37-.04s.88-.09,1.37.14c-.43.14-1.04.46-1.59.57ZM83.43,12.32c.24.15.43.4.57.76-.45.06-.75.05-.98-.09s-.38-.4-.5-.83c.37-.04.67.02.91.17ZM82.29,11.69c-.21-.13-.39-.38-.54-.74.36-.04.59-.03.77.07s.31.31.48.68c-.26.12-.5.12-.71-.01ZM78.57,35.68s.02-.03.03-.04c.1.03.21.04.31.07s.19.05.25.12c.1.16.34.43.45.65s.07.41-.38.41c-.11-.19-.23-.39-.34-.58s-.23-.39-.35-.59c0-.01.02-.03.03-.04ZM76.25,36.05c.25-.16.58-.29.78-.48.05.08.1.14.14.2s.08.12.13.19c-.21.16-.43.3-.65.42s-.46.24-.69.37c-.13-.34.04-.54.29-.7ZM81.27,10.28c-.2-.17-.35-.41-.38-.67.24-.1.53.01.74.2s.35.46.28.7c-.21.04-.44-.06-.64-.23ZM71.65,36.55s0,0,0,0h0s0,0,0,0,0,0,0,0c0,0,0,0,0,0ZM36.58,18.52c-.09-.09-.12-.25,0-.36.12-.12.27-.08.37.01s.12.25,0,.36c-.12.12-.28.08-.37,0ZM36.91,19.2c-.09-.09-.12-.25,0-.36.12-.12.27-.08.37.01s.12.25,0,.36c-.12.12-.28.08-.37,0ZM35.58,16.09s.01-.02.02-.04l-.24-.29-.24-.29c.09-.04.24-.09.38-.15s.29-.11.38-.15l.03.38.03.38s.03,0,.04.01.02.01.04.02l.23-.19.23-.19.15.39.15.39-.32-.03-.32-.03s0,.03-.01.04-.01.03-.02.04c0,0,.17.2.33.4s.33.4.33.4c.28.36.07.69-.22.8s-.66.03-.72-.42h0s0,0,0,0c0,0-.02-.26-.03-.52s-.03-.52-.03-.52c-.01,0-.03,0-.04-.01s-.03-.01-.04-.02l-.21.24-.21.24-.15-.39-.15-.39.3-.02.3-.02h0s0,0,0,0c0-.01,0-.03.01-.04ZM33.59,19.89c0-.15.1-.3.29-.29.19,0,.29.15.28.3s-.1.3-.29.29c-.19,0-.28-.15-.28-.3ZM33.53,20.65c0-.15.1-.3.29-.29.19,0,.29.15.28.3s-.1.3-.29.29c-.19,0-.28-.15-.28-.3ZM34.75,18.03c0-.15.1-.3.29-.29.19,0,.29.15.28.3s-.1.3-.29.29c-.19,0-.28-.15-.28-.3ZM33.83,19.19c0-.15.1-.3.29-.29.19,0,.29.15.28.3s-.1.3-.29.29c-.19,0-.28-.15-.28-.3ZM38.03,20.01c.1-.09.19-.22.26-.4l.15.5.15.5c-.18-.12-.35-.18-.49-.21s-.26-.01-.33.03c.08.46.5.63.89.57s.75-.33.72-.76c-.04-.16-.14-.26-.25-.27s-.21.06-.25.26c-.18-.23-.18-.43-.08-.54s.29-.15.49-.05c-.21-.21-.35-.41-.39-.62s0-.44.17-.72c.26.16.42.34.48.55s.02.46-.11.76c.11-.13.28-.2.43-.16s.26.19.23.5c-.13-.13-.26-.16-.35-.11s-.14.17-.12.32c.14.34.4.42.63.3s.42-.46.42-.94c-.07.03-.13.08-.19.14s-.11.14-.17.23l-.04-.51-.04-.51c.09.11.17.2.24.27s.15.12.21.14c0-.1-.02-.19-.06-.28s-.1-.19-.18-.32h.32s.32-.02.32-.02c-.07.26-.12.57-.13.95s.01.82.09,1.37c-.66-.02-1.84.33-2.96.78s-2.18,1.02-2.6,1.43c-.32-.45-.61-.8-.88-1.06s-.51-.45-.74-.6l.24-.21.24-.21c.03.15.05.27.09.36s.08.17.15.25c.03-.06.05-.15.06-.25s0-.22-.01-.37l.32.4.32.4c-.11-.02-.2-.04-.28-.05s-.16,0-.24.03c.33.35.7.46.96.39s.39-.3.25-.65c-.08-.13-.2-.18-.3-.15s-.18.13-.18.32c-.23-.21-.25-.39-.18-.52s.25-.2.42-.18c-.3-.13-.49-.28-.6-.47s-.11-.43-.03-.73c.31.09.5.22.62.41s.15.42.14.72c.08-.21.24-.32.39-.3s.29.16.31.45c-.16-.12-.29-.1-.36-.02s-.07.23,0,.37c.27.33.72.29,1.05.06s.51-.64.26-1.03c-.08.02-.17.09-.26.2s-.16.28-.22.49l-.23-.47-.23-.47c.18.08.33.11.46.11s.26-.03.39-.08c-.09-.11-.28-.24-.44-.34s-.3-.17-.3-.17c.15-.06.38-.15.6-.24s.45-.18.6-.24c0,0-.05.15-.1.33s-.1.4-.09.55c.12-.05.24-.12.34-.21ZM52.6,52c-.2-.35-.13-.89.63-1-.02-.23-.07-.47-.15-.68s-.2-.42-.37-.57c-.57.44-.95.11-1-.28s.22-.85.98-.69c.05-.19.07-.39.07-.59s-.02-.4-.05-.6c-.69.3-.98-.12-.92-.52s.47-.78,1.17-.42c.22-.25.48-.87.53-1.37s-.11-.89-.72-.68c.28.13.37.42.32.66s-.25.46-.57.45c-.35-.02-.62-.28-.72-.6s-.06-.69.2-.92c.65-.59,1.32-.35,2.01,0s1.4.77,2.14.55c.83-.18,2.4-.5,3.6-.39s2.02.65,1.35,2.2c-.28,0-.43,0-.55-.04s-.2-.11-.32-.24c.19-1.15-.87-1.16-2.15-.96s-2.77.62-3.43.31c-1.09,1.58-1.13,3.4-.41,4.81s2.21,2.41,4.17,2.34c.6.9.15,1.11-.54,1.07s-1.63-.36-2.02-.52c.06.67-.43.86-.78.71s-.58-.65-.01-1.34c-.23-.13-.48-.27-.72-.41s-.48-.28-.71-.41c-.35.65-.83.49-1.03.14ZM58.8,53.89c.16-.27.23-.63.15-.92-.13-.26-.24-.4-.29-.55s-.04-.32.06-.63c-.12-.16-1.13-1.5-2.11-2.79s-1.93-2.55-1.93-2.55l.03-.21.03-.21,2.05,2.67,2.05,2.67.07-.23.07-.23-1.85-2.45-1.85-2.45h.22s.22-.01.22-.01l1.68,2.28,1.68,2.28.08-.29.08-.29-1.53-2.01-1.53-2.01h.18s.18,0,.18,0l1.41,1.85,1.41,1.85.07-.22.07-.22-1.26-1.64-1.26-1.64h.19s.19.03.19.03c.09.12.61.83,1.12,1.52s1.02,1.37,1.11,1.43l.06-.22.06-.22-.97-1.27-.97-1.27.12-.06.12-.06.9,1.19.9,1.19s0-.05.02-.12.03-.16.04-.23c.08.01.2.03.3.04s.18.03.18.03c0,0-.27,1.66-.56,3.38s-.58,3.51-.63,3.76c.23.22.57-1.56.87-3.4s.55-3.74.62-3.74l.24-.02.24-.02-.22,3.28-.22,3.28-.82.61-.82.61s-.32-.14-.64-.27-.64-.27-.64-.27c-.13-.09-.15-.26-.13-.45s.09-.39.14-.53c.04.01.08.02.11.04s.07.02.1.03c.34.1.61-.07.77-.33ZM58.28,52.2l-.14.07s-.87-1.15-1.77-2.34-1.84-2.44-1.99-2.63c.02-.05.04-.14.07-.22s.04-.14.04-.14l1.96,2.6,1.96,2.6-.14.07ZM54.34,48.24c-.01-.14,0-.25,0-.25l1.6,2.12,1.6,2.12s-.06-.01-.14-.03-.17-.03-.24-.04c-.44-.58-.88-1.16-1.33-1.74s-.89-1.16-1.35-1.73c-.1-.13-.14-.31-.15-.45ZM61.45,47.4c-.16.2-.47.34-.74.27-.31.03-.69-.06-.9-.25s-.23-.47.18-.83c.21.02.43.05.65.08s.45.06.66.08c.32.18.3.44.14.64ZM61.73,64.94c.23.05.43.24.36.53-.06.29-.31.4-.54.35s-.43-.24-.36-.53c.06-.29.31-.4.54-.35ZM61.34,62.2c-.28-.06-.53-.3-.45-.66.07-.37.39-.49.67-.43s.53.3.45.66c-.07.37-.39.49-.67.43ZM57.43,60.26c-.28-.06-.53-.3-.45-.66.07-.37.39-.49.67-.43s.53.3.45.66c-.07.37-.39.49-.67.43ZM64.39,66.95c-.23,1.31-.66,2.26-1.17,2.89s-1.1.92-1.66.92-1.15-.3-1.66-.92-.94-1.57-1.17-2.89c.07.07.14.14.21.23s.15.18.22.29l.12.16.12.16.17-.11.17-.11c.07-.05.15-.09.22-.12s.14-.07.2-.09c-.07.15-.12.32-.15.49s-.02.36.02.54c.07.39.27.73.53.96s.61.38.99.38c.37,0,.71-.14.98-.38s.46-.57.53-.96c.03-.19.04-.37.02-.54s-.07-.34-.15-.49c.07.03.13.06.2.09s.14.08.22.12l.17.11.17.11.12-.16.12-.16c.08-.1.15-.2.22-.29s.14-.16.21-.23M64.94,66.23c-.33.03-.57.16-.78.33s-.38.4-.55.62c-.15-.1-.33-.19-.52-.26s-.38-.12-.57-.12c-.1,0-.2.01-.29.04s-.19.08-.27.15c.6.24.79.8.69,1.31s-.5.96-1.08.97c-.58,0-.98-.46-1.08-.97s.09-1.08.69-1.31c-.08-.07-.17-.12-.27-.15s-.19-.04-.29-.04c-.19,0-.38.05-.57.12s-.36.17-.52.26c-.17-.23-.34-.45-.55-.62s-.46-.3-.78-.33c.18,1.65.65,2.89,1.26,3.72s1.36,1.24,2.12,1.24,1.51-.41,2.12-1.24,1.08-2.07,1.26-3.72h0ZM53.85,57.73c-.12,0-.25-.03-.35-.11-.12-.16-.61-.44-1.01-.75s-.7-.65-.45-.94c.07-.09.17-.14.28-.16s.23,0,.33.07c.13.17.63.45,1.04.76s.72.66.47.96c-.07.1-.19.15-.3.16ZM52.97,58.45c-.25-.24-.4-.58-.41-.96.19.14.42.35.66.51s.51.27.77.22c.69-.18.84-.59.71-1.01s-.54-.86-.99-1.1c.95-.16,1.49.52,1.55,1.25s-.36,1.49-1.33,1.49c-.38,0-.72-.15-.96-.4ZM50.8,57.63c-.06-.76-.09-1.52-.15-1.81-.02-.27.06-.53.22-.72s.39-.33.66-.37c.4-.02,1.19-.16,1.97-.27s1.56-.18,1.94-.05c.3.17,1.08.45,1.73.83s1.15.86.89,1.43c-.73-.51-1.51-.93-2.29-1.1s-1.56-.11-2.3.35c-.7-.74-1.44-.68-1.78-.29s-.29,1.1.6,1.65c-.39.96-.08,1.82.49,2.52s1.39,1.23,1.99,1.54c-.34.52-1.13.23-1.89-.29s-1.49-1.27-1.7-1.68c-.21-.23-.31-.97-.38-1.73ZM69.78,12.05c-1.35-1.07-2.9-1.85-4.58-2.27.04-.15.08-.29.12-.42s.09-.27.13-.4c1.92.49,3.67,1.43,5.17,2.7s2.73,2.87,3.6,4.71l-.55-.18-.55-.18c-.85-1.55-1.99-2.89-3.34-3.96ZM53.99,11.65c1.49-1.27,3.25-2.2,5.17-2.7.05.13.09.26.13.4s.08.28.12.42c-1.69.42-3.24,1.21-4.58,2.27s-2.48,2.41-3.34,3.96l-.55.18-.55.18c.87-1.83,2.1-3.44,3.6-4.71ZM70,9.82c0-.31.2-.61.59-.61.39,0,.59.3.59.61s-.2.61-.59.61c-.39,0-.59-.3-.59-.61ZM67.22,8.24c0-.31.2-.61.59-.61.39,0,.59.3.59.61s-.2.61-.59.61c-.39,0-.59-.3-.59-.61ZM65.71,7.69c0-.31.2-.61.59-.61.39,0,.59.3.59.61s-.2.61-.59.61c-.39,0-.59-.3-.59-.61ZM68.65,8.95c0-.31.2-.61.59-.61.39,0,.59.3.59.61s-.2.61-.59.61c-.39,0-.59-.3-.59-.61ZM71.25,10.83c0-.31.2-.61.59-.61.39,0,.59.3.59.61s-.2.61-.59.61c-.39,0-.59-.3-.59-.61ZM75.59,15.41c.31,0,.61.2.61.59,0,.39-.3.59-.61.59s-.61-.2-.61-.59c0-.39.3-.59.61-.59ZM74.86,13.98c.31,0,.61.2.61.59,0,.39-.3.59-.61.59s-.61-.2-.61-.59c0-.39.3-.59.61-.59ZM72.38,11.97c0-.31.2-.61.59-.61.39,0,.59.3.59.61s-.2.61-.59.61c-.39,0-.59-.3-.59-.61ZM73.98,12.63c.31,0,.61.2.61.59,0,.39-.3.59-.61.59s-.61-.2-.61-.59c0-.39.3-.59.61-.59ZM53.42,9.82c0-.31.2-.61.59-.61.39,0,.59.3.59.61s-.2.61-.59.61c-.39,0-.59-.3-.59-.61ZM52.18,10.83c0-.31.2-.61.59-.61.39,0,.59.3.59.61s-.2.61-.59.61c-.39,0-.59-.3-.59-.61ZM48.43,16c0-.31.2-.61.59-.61.39,0,.59.3.59.61s-.2.61-.59.61c-.39,0-.59-.3-.59-.61ZM54.77,8.95c0-.31.2-.61.59-.61.39,0,.59.3.59.61s-.2.61-.59.61c-.39,0-.59-.3-.59-.61ZM50.04,13.22c0-.31.2-.61.59-.61.39,0,.59.3.59.61s-.2.61-.59.61c-.39,0-.59-.3-.59-.61ZM49.16,14.57c0-.31.2-.61.59-.61.39,0,.59.3.59.61s-.2.61-.59.61c-.39,0-.59-.3-.59-.61ZM57.71,7.69c0-.31.2-.61.59-.61.39,0,.59.3.59.61s-.2.61-.59.61c-.39,0-.59-.3-.59-.61ZM51.05,11.97c0-.31.2-.61.59-.61.39,0,.59.3.59.61s-.2.61-.59.61c-.39,0-.59-.3-.59-.61ZM56.2,8.24c0-.31.2-.61.59-.61.39,0,.59.3.59.61s-.2.61-.59.61c-.39,0-.59-.3-.59-.61ZM63.54,11.4c.16-1.18.43-2.44.92-3.5.11-.24.35-.28.53-.19s.32.29.2.53c-.33.73-.59,1.65-.77,2.71s-.27,2.25-.27,3.53h-.81c0-.78.04-1.89.19-3.08ZM60.18,10.95c-.18-1.06-.44-1.98-.77-2.71-.11-.24.02-.44.2-.53s.43-.05.53.19c.48,1.06.76,2.31.92,3.5s.19,2.3.19,3.08h-.81c0-1.28-.09-2.47-.27-3.53ZM61.66,13.81c0-.33.21-.66.64-.66.43,0,.64.33.64.66s-.21.66-.64.66c-.43,0-.64-.33-.64-.66ZM61.66,12.17c0-.33.21-.66.64-.66.43,0,.64.33.64.66s-.21.66-.64.66c-.43,0-.64-.33-.64-.66ZM61.66,10.52c0-.33.21-.66.64-.66.43,0,.64.33.64.66s-.21.66-.64.66c-.43,0-.64-.33-.64-.66ZM62.3,8.48c.47,0,.94.36.46,1.09-.14-.07-.3-.11-.46-.11s-.33.04-.46.11c-.47-.72,0-1.09.46-1.09ZM62.3,8.05c-.19,0-.37.05-.52.14-.37-.68.08-1.02.52-1.02s.89.34.52,1.02c-.15-.09-.34-.14-.52-.14ZM60.83,3.04c-.28.19-.47.44-.52.71h-.21V.77h.21c.05.27.24.52.52.71s.65.33,1.07.38c-.05-.42-.19-.79-.38-1.07s-.44-.47-.71-.52V.06h2.98v.21c-.27.05-.52.24-.71.52s-.33.65-.38,1.07c.42-.05.79-.19,1.07-.38s.47-.44.52-.71h.21v2.98h-.21c-.05-.27-.24-.52-.52-.71s-.65-.33-1.07-.38c.05.42.19.79.38,1.07s.44.47.71.52v.21h-1.07s.05.04.07.06.04.05.06.07c.95.21,1.47,1.04,1.53,1.91s-.35,1.76-1.25,2.1c.35-.34.4-.84.22-1.25s-.56-.73-1.06-.71c-.5-.02-.89.3-1.06.71s-.13.91.22,1.25c-.91-.34-1.31-1.24-1.25-2.1s.58-1.69,1.53-1.91c.02-.02.04-.05.06-.07s.05-.04.07-.06h-1.07v-.21c.27-.05.52-.24.71-.52s.33-.65.38-1.07c-.42.05-.79.19-1.07.38ZM88.08,49.14c-.03-.06-.05-.12-.06-.19.03.05.06.11.09.17s.07.12.1.17h0s0,0,0,0c-.05-.04-.1-.09-.13-.15ZM87.71,50.55c-.42-.26-.75.19-1.01.75s-.46,1.25-.61,1.45c-.08.17-.08.35-.03.5s.16.27.32.32l-.31.65-.31.65c-.17-.03-.32.02-.44.13s-.19.27-.19.46c.06.25-.03.92-.03,1.53s.1,1.16.54,1.18v.3s0,.3,0,.3c-1.07.19-1.53,1.13-1.44,2.01s.72,1.71,1.82,1.69c1.09.03,1.72-.79,1.82-1.67s-.35-1.82-1.41-2.02v-.29s0-.29,0-.29c.17.03.32-.02.44-.13s.19-.27.19-.46c-.06-.24.03-.89.03-1.49s-.08-1.15-.47-1.21l.24-.49.24-.49c.4.22.72-.24.98-.8s.45-1.23.6-1.42c.07-.16.08-.33.03-.47s-.14-.26-.28-.32l.18-.37.18-.37c-.05-.07-.13-.18-.22-.31s-.19-.29-.29-.46l-.28.58-.28.58ZM87.31,60.59c-.26,1.5-1.35,1.51-2.04.98s-.96-1.59.42-2.22c.06.14.21.22.35.22s.28-.07.35-.22c.27.08.5.24.66.46s.26.48.26.78ZM86.43,57.52c.03-.22-.1-.38-.26-.45s-.36-.03-.47.15c.03-.08,0-.53-.02-.96s.02-.84.17-.84c.06.05.14.07.21.08s.15-.02.22-.07c.05,0,.09.03.12.07s.05.09.05.15v.88s0,.88,0,.88c0,.02,0,.04,0,.05s-.01.03-.02.05ZM88.06,51.58c-.05.05-.22.5-.4.93s-.39.84-.49.81c-.04-.07-.11-.13-.18-.16s-.16-.04-.24-.02c-.05-.02-.08-.07-.09-.12s-.01-.11.01-.16c.06-.06.22-.52.41-.96s.39-.84.52-.78c.03.08.1.15.18.19s.17.06.26.03c.02.03.04.07.04.11s0,.08-.02.13ZM45.71,45.81c.42-.47.83-.94.83-.94,0,0-.46.06-.93.13s-.97.13-1.05.15l-.04-.29-.04-.29,1.69-.19,1.69-.19c.03.14-.46.78-.95,1.4s-.98,1.19-.98,1.19c0,0,.52-.1,1.06-.19s1.11-.18,1.19-.16l.08.33.08.33-1.67.21-1.67.21-.09-.36-.09-.36s.47-.49.89-.96ZM46.01,51.06c.81.77,1.85.54,2.48-.08s.85-1.64,0-2.44c-.81-.78-1.86-.55-2.49.08s-.85,1.65,0,2.44ZM46.2,49.33c.35-.64,1.12-.77,1.68-.56s.9.77.42,1.5c-.37.62-1.13.76-1.68.55s-.89-.75-.41-1.5ZM48.9,54.42c.22-.13.43-.29.61-.42l-.43-.6-.43-.6c-.19.13-.4.28-.59.45s-.37.34-.48.52l-.28-.39-.28-.39c.44-.17.97-.48,1.47-.84s.95-.77,1.25-1.13l.28.39.28.39c-.2.05-.43.16-.64.29s-.43.29-.61.43l.43.6.43.6c.19-.13.4-.28.6-.45s.37-.34.48-.52l.28.39.28.39c-.44.17-.97.48-1.47.84s-.95.77-1.25,1.13l-.28-.39-.28-.39c.2-.05.43-.16.64-.29ZM46.21,42.91c-.62,0-1.25.04-1.72.13l.02-.36.02-.36c.48.09,1.1.14,1.72.14s1.25-.04,1.72-.13l-.02.36-.02.36c-.48-.09-1.1-.14-1.72-.14ZM71.84,57.06h0s0-.01,0-.01c.29.03.69-.2.89-.46s.22-.54-.24-.63c-.28,0-.64.14-.98.22s-.66.09-.88-.19c-.31-.41-.17-.87.13-1.25s.77-.71,1.14-.87l.24.29.24.29h0s0,.01,0,.01c-.32-.11-.79.08-1.05.34s-.33.57.16.71c1.15-.47,1.85-.19,1.99.31s-.25,1.24-1.27,1.68M77.56,50.15l-.26-.24c.1-.1.19-.22.27-.37s.15-.3.21-.48l-.48-.14-.48-.14-.16.55-.16.55-.25-.04-.25-.04c.07-.09.15-.3.22-.52s.14-.47.19-.61l-.5-.15-.5-.15c-.08.27-.13.52-.16.77s-.03.47-.01.69h0s0,0,0,0l-.28-.24-.28-.24.28-.94.28-.94c.12.09.84.32,1.57.54s1.47.4,1.61.39l-.29.99-.29.99-.26-.24ZM75.25,53.12c-.59.06-1.16.13-1.16.13,0,0,.36.23.74.48s.77.5.83.54l-.15.22-.15.22-1.31-.9-1.31-.9c.07-.11.8-.26,1.52-.37s1.43-.21,1.43-.21c0,0-.43-.25-.87-.52s-.89-.55-.94-.62l.14-.27.14-.27,1.31.88,1.31.88-.16.31-.16.31s-.63.05-1.22.11ZM69.21,59.1l-.02-.34c.15,0,.3-.04.46-.09s.32-.12.49-.22l-.26-.42-.26-.42-.5.29-.5.29-.16-.19-.16-.19c.11-.02.32-.12.53-.23s.44-.24.58-.32l-.27-.44-.27-.44c-.25.14-.47.29-.66.45s-.36.32-.49.49h0s0,0,0,0l-.04-.36-.04-.36.87-.5.87-.5c.03.14.39.79.78,1.43s.8,1.26.92,1.35l-.91.53-.91.53-.02-.34ZM49.19,37.18c-.04.3-.19.61-.37.87-.09-.02-.19-.03-.29-.03s-.2.01-.29.01c.2-.1.35-.37.36-.6s-.09-.42-.42-.36c-.12.03-.37.17-.63.31s-.52.26-.66.26c-.69-.02-.88-.5-.78-1.02s.47-1.1.9-1.32l.23.17.23.17h0s0,.01,0,.01c-.29.04-.62.36-.76.66s-.09.58.38.55c.28-.06.59-.29.9-.44s.62-.24.9-.02c.26.2.34.49.3.79ZM49.57,35.69v.3c-1.17.04-1.77-.89-1.77-1.8s.58-1.83,1.77-1.76v.64c-.92-.2-1.3.36-1.26.98s.5,1.3,1.26,1.35v.3ZM53.12,30.33c-.07-.12-.12-.22-.16-.29-.17.09-.33.22-.48.38s-.27.34-.38.54h0s0,0,0,0l-.15-.49-.15-.49,1.27-.76,1.27-.76.41.31.41.31c-.17-.01-.45.06-.74.16s-.57.23-.75.34c0,0,.08.13.21.34s.31.49.51.81c0,0-.26,0-.53,0s-.52,0-.53,0c-.09-.15-.16-.29-.23-.41ZM60.76,30.29h0s0,.01,0,.01c-.25.2-.54.26-.83.24s-.59-.14-.86-.29c-.79.44-1.61.15-2.08-.43s-.57-1.43.06-2.09c.67-.8,1.66-.74,2.33-.27s1.01,1.36.37,2.24c.21.16.4.29.56.39s.31.17.44.2ZM58.82,29.79c.64-.25.68-.86.42-1.36s-.81-.87-1.38-.64c-.63.24-.67.86-.42,1.35s.81.88,1.37.64ZM61.23,28.89c0-.27.01-.65,0-1.02s-.05-.72-.17-.96h1.13c-.09.25-.22.96-.2,1.59s.18,1.18.66,1.12c.19,0,.38-.06.52-.18s.23-.28.23-.48c0-.28.01-.67,0-1.06s-.05-.76-.17-1h1.13c-.13.44-.2,1.04-.2,1.64s.07,1.21.2,1.64h-.96s.02-.08.02-.13,0-.12,0-.19c-.49.35-1.06.43-1.5.27s-.75-.59-.7-1.25ZM65.66,30.44c-.09-.01-.17-.03-.34-.05.15-.41.34-.96.49-1.51s.27-1.11.26-1.54l.44.15.44.15c-.22.34-.41.86-.56,1.39s-.27,1.08-.37,1.48c-.18-.03-.27-.05-.35-.07ZM71.36,41.46h.56v-8.9h-8.22v8.9h7.66ZM68.22,41.2h0s0,0,0,0,0,0,0,0ZM67.4,41.2h0s0,0,0,0,0,0,0,0h0ZM71.64,36.63s0,0,0,0,0,0,0,0h0s0,0,0,0h0ZM68.21,32.83h0s0,0,0,0,0,0,0,0h0ZM63.98,37.41h0s0,0,0,0h0s0,.02,0,.04,0,.04,0,.04c0-.08.08-.09.13-.07s.09.08.02.14l.02.02.02.02c.14.02.21-.08.22-.18s-.05-.2-.19-.21h0s.16-.08.16-.08l.16-.07v-.1l-.16-.07-.16-.07h0c.14-.02.2-.12.19-.22s-.09-.19-.22-.18l-.02.02-.02.02c.07.06.03.12-.02.14s-.12.01-.13-.07c0,0,0,.03,0,.05s0,.05,0,.05h0v-3.54h.28v-.26h3.05c.09.01.09.08.06.13s-.09.07-.15.01l-.02.02-.02.02c-.02.13.09.2.2.21s.22-.06.22-.19h0l.08.16.08.16h.1l.08-.16.08-.16c0,.13.11.2.22.19s.21-.08.2-.21l-.02-.02-.02-.02c-.05.06-.12.03-.15-.01s-.02-.11.06-.13c0,0,.76,0,1.53,0s1.53,0,1.53,0v.26h.28s.01,1.05.01,2.02-.03,1.83-.16,1.34l-.02-.02-.02-.02c-.13-.02-.21.08-.22.18s.05.21.19.21h0s-.16.08-.16.08l-.16.07v.1l.16.07.16.07h0c-.14.02-.2.12-.19.22s.09.19.22.18l.02-.02.02-.02c.13-.5.16.37.16,1.36s-.03,2.08-.01,2.01h-.28v.26h-3.05c-.09-.01-.1-.08-.07-.13s.09-.08.15-.01l.02-.02.02-.02c.02-.13-.09-.2-.19-.21s-.22.05-.22.18h0l-.08-.16-.08-.16h-.1l-.08.16-.08.16h0c0-.13-.12-.19-.22-.18s-.21.08-.19.21l.02.02.02.02c.06-.06.12-.03.15.02s.02.11-.07.13c0,0-.76,0-1.52,0s-1.52,0-1.52,0v-.26h-.28v-3.53ZM73.13,41.81c0-.09-.05-.17-.12-.22s-.17-.07-.26-.04v.04c-.16.73-.2-.41-.21-1.71s.03-2.75.01-2.64l.15.06.15.06v-.7l-.15.06-.15.06v-2.23s0-2.23,0-2.23c.02-.11.12-.12.19-.08s.11.12.01.19v.04c.21.07.34-.07.36-.22s-.05-.31-.27-.32l.14-.24.14-.24-.03-.03-.03-.03s-.12.07-.25.13-.24.13-.25.13c0-.2-.18-.28-.33-.26s-.3.15-.23.34h.04c.07-.09.16-.05.2,0s.04.15-.08.18c0,0-1.03,0-2.05,0s-2.05,0-2.05,0l.06-.14.06-.14h-.75l.06.14.06.14h-2.05s-2.05,0-2.05,0c-.12-.02-.13-.11-.09-.17s.13-.1.21-.01h.04c.07-.2-.07-.32-.23-.34s-.33.05-.33.26c0,0-.13-.06-.25-.13s-.25-.13-.25-.13l-.03.03-.03.03.14.24.14.24c-.22,0-.3.17-.27.32s.16.28.36.21v-.04c.16-.73.2.4.21,1.7s-.03,2.74-.01,2.64l-.15-.06-.15-.06v.7l.15-.06.15-.06c-.01-.05.02,1.39.01,2.67s-.05,2.39-.21,1.68v-.04c-.21-.06-.34.07-.36.22s.05.31.27.32l-.14.24-.14.24.03.03.03.03s.13-.07.25-.13.25-.13.25-.13c0,.2.18.28.33.26s.3-.15.23-.34h-.04s-.09.06-.14.04-.09-.06-.09-.11c0-.03.01-.06.03-.08s.05-.03.08-.04h4.11l-.07.14-.07.14h.75l-.06-.14-.06-.14h4.1s.06.02.08.04.03.05.03.08c0,.06-.04.1-.09.11s-.11,0-.14-.04h-.04c-.07.2.08.32.23.34s.33-.05.33-.26c0,0,.12.06.25.13s.24.13.25.13l.03-.03.03-.03-.14-.24-.14-.24c.08,0,.15-.03.2-.08s.08-.12.08-.19ZM68.16,32.22h4.11v9.58h-8.93v-4.82h0s0,0,0,0h0s0,0,0,0v-4.76h4.82ZM71.63,37.5s0,0,0,0h0s0,0,0,0ZM71.63,36.53s0,0,0,0h0s0,0,0,0ZM63.99,37.5s0,0,0,0h0s0,0,0,0ZM63.99,36.53s0,0,0,0h0s0,0,0,0ZM34.63,19.32c.2-.4.48-.74.84-1,.02.02.04.05.06.08s.04.06.06.08c-.31.23-.57.52-.75.86s-.3.73-.34,1.14l-.1.08-.1.08c.02-.48.13-.93.33-1.33ZM35.88,18.72c-.13-.22-.26-.41-.4-.55-.05-.04-.03-.1,0-.13s.1-.04.14,0c.2.2.37.46.5.72s.23.5.3.68l-.1.03-.1.03c-.1-.29-.22-.55-.35-.78ZM34.23,18.55c0-.15.1-.3.29-.29.19,0,.29.15.28.3s-.1.3-.29.29c-.19,0-.28-.15-.28-.3ZM40.11,17.58c-.13.14-.3.11-.41,0s-.15-.28-.01-.41c.13-.14.3-.1.41,0s.15.27.02.41ZM40.7,18.07c-.13.14-.3.11-.41,0s-.15-.28-.01-.41c.13-.14.3-.1.41,0s.15.27.02.41ZM37.97,17.11c-.13.14-.3.11-.41,0s-.15-.28-.01-.41c.13-.14.3-.1.41,0s.15.27.02.41ZM39.44,17.26c-.13.14-.3.11-.41,0s-.15-.28-.01-.41c.13-.14.3-.1.41,0s.15.27.02.41ZM40.14,18.21h-.13s-.13.03-.13.03c-.32-.26-.68-.45-1.05-.56s-.76-.13-1.14-.07c0-.04-.01-.07-.02-.1s0-.07-.01-.1c.43-.07.88-.03,1.3.11s.82.38,1.18.7ZM37.92,18.78l-.09.05-.09.05c-.08-.17-.19-.41-.28-.69s-.16-.58-.16-.86c0-.06.05-.1.1-.1s.1.03.1.09c0,.2.04.42.11.67s.17.52.31.79ZM38.71,17.1c-.13.14-.3.11-.41,0s-.15-.28-.01-.41c.13-.14.3-.1.41,0s.15.27.02.41ZM71.14,48.75c.28-.09.56-.18.77.02.1.16.28.35.41.55s.2.4.07.6c-.06.02-.09.06-.11.1s-.02.09-.02.15c0,.14-.12.21-.24.21s-.23-.07-.23-.21c-.04-.15-.13-.18-.18-.22s-.06-.12.03-.36c-.25-.32-.59-.24-.94-.16s-.71.17-.99-.15c-.26-.27-.58-.26-.92-.17s-.68.27-.99.33c-.3.09-.58.39-.86.62s-.58.4-.93.23c-.05.1-.1.21-.14.31s-.1.21-.15.32c-.21.14-.9.47-1.53.66s-1.21.22-1.21-.23c-.24.02-.36-.08-.36-.2s.11-.24.35-.26c-.01-.45.5-.14,1.17-.11s1.48-.22,2.08-1.78c.89-.25,1.84-.35,2.78-.47s1.87-.27,2.72-.65c.34-.41.14-.61-.17-.61s-.72.21-.8.61c-.2.04-.39.08-.59.12s-.4.08-.61.13c-.02-.09.03-.15.08-.2s.1-.11.08-.2c-.62.19-1.34.5-1.99.56s-1.22-.14-1.55-.97c.97-.08.99.25,1.17.46s.5.27,2.06-.35c.39-.09.78-.23,1.18-.34s.8-.17,1.2-.1c.72.39.58.82.16,1.15s-1.13.57-1.56.58c.21.21.49.13.77.04ZM62.5,47.08c.02-.08.11-.14.25-.19.04-.07.06-.13.1-.18s.1-.09.19-.1c.28.26.61.24.93.21s.64-.04.91.21c.37-.08.63-.28.82-.55s.31-.6.42-.92c.52-.19,1.09-.3,1.66-.37s1.16-.1,1.72-.14c.46-.05.97-.02,1.47-.04s.98-.09,1.37-.33c.15-.28-.03-.45-.27-.49s-.53.06-.59.3c-.12.2-.35.25-.6.26s-.52-.01-.73.05c-.03-.1.02-.14.08-.18s.12-.08.12-.16c-.69,0-1.49.32-2.21.41s-1.38-.03-1.79-.9c.64-.13.89.05,1.05.23s.23.39.52.33c.74-.08,1.51-.3,2.28-.46s1.53-.25,2.26-.07c.43.28.33.63.05.89s-.76.44-1.09.37c.01.22.24.22.49.19s.53-.08.64.02c.23.11.36.31.44.53s.09.48.08.7c-.03.08-.09.09-.14.11s-.11.04-.13.13c-.02.07-.07.1-.14.1s-.13-.03-.17-.1c-.03-.05-.05-.11-.08-.15s-.08-.07-.15-.07c-.02-.04-.04-.08-.05-.12s-.03-.07-.05-.11c.04-.04.07-.07.1-.1s.05-.06.08-.08c-.08-.18-.22-.26-.37-.28s-.32,0-.48.04c-.12.02-.23.02-.34,0s-.2-.08-.28-.16c-.33-.26-.74-.32-1.16-.29s-.86.15-1.23.25c-.46.07-.84.32-1.23.55s-.79.43-1.28.41c-.2.03-.3.17-.41.3s-.25.25-.52.25c-.37.05-.74.12-1.11.17s-.74.09-1.1.07c-.03-.04-.04-.1-.05-.16s-.03-.11-.1-.13c-.14-.09-.19-.18-.17-.25ZM71.19,52.03c.08.09.13.21.12.32-.08.11-.1.29-.15.4s-.14.16-.34,0c-.12.07-.19.11-.27.09s-.14-.12-.23-.34c-.32.01-.53.31-.75.55s-.45.44-.8.24c-.72-.32-1.25-.03-1.73.4s-.92,1-1.47,1.24c.02.44-.19.76-.48,1.01s-.68.46-.99.67c-.09.08-.2.08-.31.08s-.21.01-.29.12c-.02.02-.06.02-.11.02s-.11-.01-.16-.01c0-.04,0-.08.01-.12s0-.08.01-.12c-.06-.03-.12,0-.17.04s-.11.09-.17.1c-.19,0-.23-.09-.19-.2s.14-.24.23-.32c-.02-.09-.05-.15-.05-.21s.03-.12.13-.22c.26.13.6.1.88-.04s.5-.39.52-.69c.61-.05.87-.37,1.05-.74s.27-.8.54-1.09c.53-.24,1.08-.44,1.63-.65s1.1-.4,1.63-.64c.06.12,0,.2-.09.28s-.21.14-.28.21c.36.12.48-.07.7-.27s.53-.4,1.26-.31c.11,0,.23.06.31.15ZM64.24,44.48c-.06-.11-.13-.23-.06-.37.08-.04.15-.04.23-.03s.16.02.24.01c.11-.12.25-.26.4-.32s.3-.04.43.14c.05.16.19.18.32.21s.26.04.32.17c.03.12,0,.2-.07.26s-.16.12-.24.19c.12.39.07.81-.1,1.18s-.46.68-.81.83c-.31-.18-.52-.5-.63-.84s-.11-.73,0-1.07c.09-.14.03-.26-.04-.37ZM63.98,53.41c.01-.25.06-.5.13-.74-.13-.04-.23-.13-.27-.24s0-.22.14-.29c.07,0,.14,0,.21,0s.14-.03.19-.09c.15-.18.33-.26.51-.24s.33.14.43.36c.29.02.46.09.51.2s-.04.27-.28.46c.13.45-.07,1.19-.38,1.62s-.74.54-1.08-.28c-.1-.24-.13-.49-.12-.74ZM66.08,48.3c-.04.09-.15.16-.26.18.02.36-.02.76-.15,1.1s-.37.65-.73.8c-.35-.14-.56-.45-.66-.81s-.08-.76.05-1.09c-.14-.13-.23-.31-.22-.44s.12-.19.39-.09c.18-.19.38-.35.56-.37s.36.07.48.39c.07,0,.15,0,.23,0s.15.03.22.07c.12.07.14.17.09.26ZM71.57,50.83c0,.23-.11.47-.33.66-.11.14-.23.17-.36.16s-.27-.04-.44-.05c.94-.42.92-.88.68-1.05s-.72-.07-.69.62c-.18.16-.39.27-.61.37s-.46.17-.71.25c.05-.12.14-.2.21-.29s.13-.17.12-.29c-.36.16-.71.4-1.07.63s-.74.44-1.16.52c-.37.13-.63,0-.85-.21s-.41-.49-.66-.67c.2-.06.47-.11.71-.08s.45.13.56.36c.43.42,1.16-.08,1.95-.63s1.63-1.15,2.28-.93c.24.17.36.4.36.63ZM68.46,53.77c.09.11.2.21.31.3-.19.37-.47.68-.79.93s-.71.44-1.11.57c-.03-.14-.09-.18-.17-.15s-.16.1-.23.18c-.03,0-.06-.02-.09-.03s-.06-.02-.08-.03c-.02-.12-.01-.22.03-.3s.1-.15.2-.2c-.01-.05-.03-.1-.04-.15s-.03-.11-.05-.18c.22-.01.45,0,.65-.04s.36-.14.45-.38c-.05-.07-.1-.13-.14-.19s-.09-.13-.14-.19c.12-.2.27-.3.45-.37s.37-.1.56-.15c.05.15.12.28.21.39ZM67.25,50.54s.04,0,.07,0c0-.02,0-.04.01-.06s0-.04,0-.05c-.04-.1.02-.16.11-.19s.19-.01.25.04c.14.12.28.11.42.06s.28-.14.41-.22c-.07-.07-.13-.14-.19-.2s-.13-.14-.2-.21c.11-.17.28-.25.46-.31s.39-.08.58-.15c.07.11.14.22.22.34s.14.22.22.34c-.19.28-.54.58-.94.8s-.84.37-1.19.35c0-.03,0-.06,0-.09s0-.06,0-.1c-.07-.02-.13,0-.19.02s-.12.02-.17-.05c-.06-.05-.08-.13-.06-.2s.07-.12.15-.12c.02,0,.04,0,.06,0ZM63.33,54.71c-.24-.27-.42-.68-.57-.92-.05-.11-.14-.2-.21-.31s-.11-.21-.06-.35c.02,0,.05-.02.07-.02s.05-.02.07-.02c0-.01,0-.03,0-.04s0-.02,0-.03c-.08-.05-.11-.11-.11-.18s.02-.13.05-.2c.1-.03.19-.03.27,0s.15.1.2.21c.22-.13.35-.09.4.02s.02.3-.1.46c.1.27.25.51.4.76s.33.49.46.74c-.35.3-.63.16-.87-.11ZM63.18,45.91c-.28-.41-.49-.94-.6-1.24.04-.02.08-.03.11-.05s.06-.03.09-.04c-.01-.11,0-.25.04-.34s.13-.14.28-.06c.09.06.13.08.19.09s.11,0,.23-.04c.07.05.11.12.12.19s0,.14-.03.2c-.12.35.02.64.2.93s.39.58.41.93c-.39.15-.75-.15-1.03-.56ZM62.61,48.65c.03-.05.09-.1.17-.12-.1-.35-.01-.38.13-.33s.34.18.47.14c.06.06.1.13.13.2s.03.14.01.21c-.05.31.1.54.27.76s.38.44.45.71c-.07.14-.19.15-.33.13s-.28-.07-.4-.07c-.25-.13-.4-.38-.52-.65s-.22-.56-.36-.79c-.06-.08-.06-.14-.03-.2ZM50.99,34.52c.07-.1.2-.17.33-.13,0-.05,0-.09,0-.13s0-.08,0-.11c.12-.09.21-.09.3-.05s.16.13.24.21c.27.07.46.02.66-.02s.39-.05.66.12c.33-.09.59-.25.8-.48s.37-.51.48-.85c.75-.34,1.97-.26,3.14-.23s2.28.01,2.82-.51c.13-.33-.08-.48-.36-.48s-.6.13-.69.37c-.17.18-.4.22-.65.23s-.51,0-.74.03c.04-.09.12-.16.19-.23s.15-.14.2-.24c-.64.06-1.42.38-2.12.46s-1.31-.08-1.62-.96c.86,0,.9.26,1,.44s.25.3,1.33.01c.58-.05,1.16-.22,1.75-.34s1.17-.18,1.74-.02c.22.07.33.25.37.45s-.02.4-.14.54c-.15.21-.37.31-.6.37s-.49.1-.71.19c.1.16.24.2.38.2s.3-.07.43-.13c.26-.17.57.07.76.38s.25.7.01.83c-.03,0-.04.02-.05.04s0,.05,0,.07c-.03.2-.16.25-.27.21s-.21-.16-.17-.31c-.03-.01-.06-.02-.1-.03s-.07-.02-.11-.04c.01-.06.02-.13.04-.19s.02-.12.04-.18c-.41-.21-.65-.05-.91,0s-.52,0-.98-.61c-.4,0-.79.02-1.18.07s-.78.11-1.17.19c-.31.09-.57.29-.85.45s-.56.31-.93.28c-.15,0-.27.07-.38.15s-.22.17-.36.22c-.35.1-.72.23-1.1.3s-.75.08-1.1-.07c0-.03.01-.06.02-.09s.01-.06.02-.09c-.06-.06-.11-.05-.17-.04s-.11.05-.17.04c-.14-.08-.13-.21-.06-.31ZM52.76,32.03s-.08-.11-.12-.17c.09-.12.13-.17.19-.19s.12,0,.25.06c.19-.19.34-.28.47-.27s.26.11.43.32c.07,0,.14,0,.21,0s.15,0,.23,0c.01.04.02.09.04.13s.02.09.04.14c-.05.03-.09.06-.14.09s-.09.06-.14.09c.07.37.02.85-.16,1.24s-.49.68-.94.67c-.24-.31-.38-.62-.42-.96s.03-.68.23-1.05c-.07-.03-.12-.07-.17-.12ZM57.9,33.59c.24-.03.45-.02.5.18.02.12.07.21.13.3s.13.18.19.28c-.18.14-.9.44-1.55.6s-1.22.17-1.13-.29c-.04-.02-.08-.05-.12-.07s-.08-.05-.12-.07c.02-.13.03-.2.07-.23s.1-.02.23-.01c.05-.03.06-.08.07-.12s.02-.09.09-.1c.12-.03.19,0,.25.08s.11.16.17.23c.13-.02.25-.03.38-.05s.25-.07.37-.14c-.02-.08-.07-.14-.12-.21s-.08-.14-.06-.24c.15,0,.41-.09.65-.13ZM51.74,33.39c-.25-.31-.44-.71-.52-.95-.06-.14-.16-.25-.18-.33s.03-.14.28-.18c.02-.11.06-.22.11-.28s.13-.07.22.03c.07.1.15.12.24.13s.17.02.24.09c-.14.16-.19.33-.17.51s.12.35.26.5c.13.11.21.26.26.42s.08.34.09.5c-.29.11-.59-.12-.84-.44ZM60.89,37.63c.19.31.26.7.01.84-.03,0-.05.02-.05.04s0,.05,0,.07c-.03.2-.16.25-.28.22s-.21-.16-.17-.31c-.03-.01-.07-.02-.1-.03s-.07-.02-.11-.04c.01-.06.02-.13.04-.19s.02-.12.04-.18c-.41-.21-.66-.05-.92,0s-.53,0-.99-.62c-.4,0-.8.02-1.19.07s-.79.12-1.18.19c-.32.09-.58.29-.85.46s-.56.31-.93.28c-.15,0-.27.07-.39.15s-.23.17-.37.22c-.22.06-.44.13-.67.2s-.46.12-.69.15c0-.07-.01-.13-.02-.2s-.02-.13-.04-.19c-.02-.06-.03-.13-.05-.19s-.03-.13-.04-.19c.2,0,.36-.05.53-.07s.34,0,.57.14c.33-.09.6-.26.81-.48s.37-.51.48-.86c.76-.34,1.99-.26,3.17-.23s2.3.01,2.84-.52c.14-.33-.08-.48-.36-.49s-.61.13-.7.37c-.17.18-.4.22-.65.23s-.51,0-.74.03c.04-.09.12-.16.19-.23s.15-.14.2-.24c-.64.06-1.43.38-2.13.46s-1.32-.08-1.63-.96c.86,0,.91.26,1.01.45s.26.31,1.34.01c.58-.05,1.17-.22,1.77-.34s1.18-.18,1.76-.02c.22.08.34.25.37.45s-.02.41-.14.55c-.15.21-.37.31-.61.37s-.49.1-.72.19c.1.16.24.21.39.2s.3-.07.43-.13c.26-.17.58.07.77.38ZM52.64,36.03c-.05-.05-.08-.11-.12-.18.09-.12.13-.17.19-.19s.12,0,.25.06c.19-.19.34-.28.48-.27s.27.11.43.32c.07,0,.14,0,.22,0s.15,0,.23,0c.01.05.02.09.04.13s.02.09.04.14c-.05.03-.09.06-.14.09s-.09.06-.14.09c.07.37.02.86-.17,1.25s-.5.69-.95.67c-.24-.31-.39-.63-.43-.96s.03-.69.23-1.05c-.07-.03-.12-.07-.17-.12ZM57.82,37.61c.24-.03.45-.02.5.19.02.12.07.22.14.31s.13.18.19.28c-.19.14-.91.45-1.56.61s-1.23.17-1.14-.29c-.04-.02-.08-.05-.12-.07s-.08-.05-.12-.07c.02-.13.03-.2.07-.23s.1-.02.23-.01c.05-.03.06-.08.07-.12s.03-.09.09-.11c.12-.04.19,0,.25.08s.11.16.17.23c.13-.02.26-.03.38-.05s.25-.07.37-.14c-.02-.08-.07-.14-.12-.21s-.08-.14-.06-.24c.15,0,.42-.09.66-.13ZM51.62,37.41c-.25-.32-.44-.72-.53-.95-.06-.14-.16-.25-.18-.33s.03-.15.29-.18c.02-.11.06-.23.12-.29s.13-.07.22.03c.07.1.16.12.24.13s.17.02.24.09c-.15.16-.2.34-.17.52s.12.35.26.5c.13.11.21.26.27.43s.08.34.1.5c-.3.11-.6-.12-.84-.44ZM60.98,41.4c.19.31.26.7.01.84-.03,0-.05.02-.05.04s0,.05,0,.07c-.03.2-.16.25-.27.22s-.21-.16-.17-.31c-.03-.01-.06-.02-.1-.03s-.07-.02-.11-.04c.01-.06.02-.13.04-.19s.02-.12.04-.18c-.41-.21-.66-.05-.91,0s-.53,0-.99-.61c-.4,0-.8.02-1.19.07s-.79.12-1.18.19c-.32.09-.58.29-.85.46s-.56.31-.93.28c-.15,0-.27.07-.39.15s-.22.17-.37.22c-.35.09-.71.23-1.08.3s-.74.09-1.09-.05c.06-.14.11-.29.15-.45s.05-.31.05-.47c0,0,0,0,0-.01s0,0,0-.01c.01,0,.02,0,.03.01s.02.01.03.02c0,0,.01.01.02.02s.01,0,.02.01c.03.02.06.05.08.08s.05.06.08.09c.27.07.47.02.66-.02s.39-.05.66.12c.33-.09.6-.26.81-.48s.37-.51.48-.86c.76-.34,1.99-.26,3.16-.23s2.3.01,2.84-.52c.14-.33-.08-.48-.36-.49s-.61.13-.7.37c-.17.18-.4.22-.65.23s-.51,0-.74.03c.04-.09.12-.16.19-.23s.15-.14.2-.24c-.64.06-1.43.38-2.13.46s-1.32-.08-1.63-.96c.86,0,.91.26,1.01.45s.26.31,1.34.01c.58-.05,1.17-.22,1.76-.34s1.18-.18,1.75-.02c.22.08.34.25.37.45s-.02.41-.14.55c-.15.21-.37.31-.61.37s-.49.1-.72.19c.1.16.24.21.39.2s.3-.07.43-.13c.26-.17.58.07.77.38ZM52.74,39.8s-.08-.11-.12-.18c.09-.12.13-.17.19-.19s.12,0,.25.06c.19-.19.34-.28.47-.27s.27.11.43.32c.07,0,.14,0,.22,0s.15,0,.23,0c.01.05.02.09.04.13s.02.09.04.14c-.05.03-.09.06-.14.09s-.09.06-.14.09c.07.37.02.86-.17,1.25s-.5.69-.94.67c-.24-.31-.39-.63-.43-.96s.03-.68.23-1.05c-.07-.03-.12-.07-.17-.12ZM57.92,41.38c.24-.03.45-.02.5.19.02.12.07.22.14.31s.13.18.19.28c-.19.14-.91.45-1.56.6s-1.23.17-1.13-.29c-.04-.02-.08-.05-.12-.07s-.08-.05-.12-.07c.02-.13.03-.2.07-.23s.1-.02.23-.01c.05-.03.06-.08.07-.12s.03-.09.09-.11c.12-.04.19,0,.25.08s.11.16.17.23c.13-.02.26-.03.38-.05s.25-.07.37-.14c-.02-.08-.07-.14-.12-.21s-.08-.14-.06-.24c.15,0,.42-.09.66-.13ZM52.46,41.12c.06.16.08.34.1.5-.11.04-.2.06-.29.03s-.17-.08-.27-.18c.02-.06.04-.14.05-.22s.03-.16.04-.22c.01-.08,0-.17-.02-.26s-.03-.18-.03-.26c.02.03.04.06.06.09s.05.06.08.09c.13.11.21.26.27.43ZM65.07,33.98c.02-.07.12-.12.29-.12.05,0,.08,0,.1,0s.04-.02.05-.04c.04-.03.03-.1.02-.17s-.01-.14.03-.16c.07-.08.17-.04.26.04s.17.18.2.24c.06.03.18-.06.27-.11s.18-.07.19.13c.01.05-.05.12-.11.18s-.12.13-.11.19c0,.17.07.35.19.53s.29.37.51.55c.04.03.08.07.11.1s.05.05.05.06c0,.03-.04.14-.09.25s-.12.22-.18.25h0s0,.01,0,.01c-.23.08-.46-.08-.66-.29s-.37-.48-.49-.63c-.06-.04-.13-.2-.2-.37s-.16-.34-.26-.41c-.14-.07-.2-.15-.18-.22ZM66.14,36.84c-.3-.05-.57-.14-.84-.25-.12-.07-.3-.06-.4-.1s-.14-.1,0-.32l-.02-.03-.02-.03c-.14-.29-.05-.35.08-.34s.31.08.37.06c-.09-.11-.09-.21-.03-.26s.16-.03.28.11c.32.26.55.4.77.45s.44.03.77-.03c.12-.1.19-.29.28-.47s.18-.34.33-.36c.1-.05.24-.1.36-.16s.23-.14.28-.24c0-.08-.04-.12-.11-.12s-.15.05-.21.12c-.09.12-.32.18-.5.16s-.3-.1-.2-.25c.04,0,.13-.03.2-.04s.14-.03.14-.03v-.13s0-.13,0-.13l-.18-.02-.18-.02s-.01-.05-.03-.11-.04-.13-.05-.17c-.07-.12.09-.18.28-.23s.42-.1.49-.18c.09-.05.26-.04.42,0s.32.09.41.13c.12.04.22.03.3.03s.14,0,.18.08c-.02.07-.1.14-.18.18s-.18.08-.24.08c-.02.01-.02.04-.01.06s.03.05.05.07c.07.05.13.19.17.35s.04.33,0,.44c-.09.36-.23.61-.42.78s-.44.26-.78.31c-.12.01-.19.02-.22.03s-.05.03-.07.07c-.02.04-.12.14-.22.25s-.22.22-.28.28c-.34.06-.66.05-.95,0ZM69.69,36.48c.05-.05,0-.19-.15-.5-.24-.54-.12-.98.18-1.28s.78-.49,1.26-.52c-.15.68-.34.81-.55.82s-.43-.08-.64.16c-.01.37.07.7.19,1.02s.28.62.43.93c.08.16.19.41.24.66s.04.5-.11.64c-.17.15-.34.18-.51.12s-.32-.19-.46-.36c-.15-.13-.22-.02-.23.15s.02.39.09.49c.07.23.23.33.36.43s.2.22.08.48c-.05.29-.22.48-.43.62s-.44.2-.63.24c-.1.03-.12-.04-.13-.12s0-.15-.07-.12c-.11.08-.26.13-.36.11s-.14-.1-.02-.26c.01,0,.06-.03.1-.06s.08-.05.07-.08c-.12-.12-.11-.24-.04-.31s.2-.09.31,0c.21.15.38.13.47.04s.08-.27-.09-.43c-.1-.13-.25-.24-.39-.34s-.28-.19-.37-.3c-.05-.04-.01-.19.04-.35s.13-.32.17-.37c.19-.38-.33-.7-.63-.98s-.39-.53.63-.76c.08-.09.18.04.27.21s.17.36.22.39c.17.22.33.5.51.75s.38.48.62.58c.15.04.24-.11.25-.3s-.06-.42-.23-.54c-.04-.04-.21-.13-.37-.2s-.31-.14-.31-.14l-.14-.29-.14-.29c.29.06.45.1.5.05ZM68.03,38.08c-.12.21-.35.47-.27.77.02.29.13.47.14.59s-.09.17-.51.21h0s0,0,0,0c-.38.05-.71,0-1.03-.1s-.62-.26-.95-.41c-.15,0-.23-.08-.24-.17s.04-.18.14-.23c.04,0,.07-.03.08-.05s.02-.06,0-.09c-.04-.08-.01-.19.05-.25s.14-.08.22.02c.04.04.07.07.1.07s.05-.01.07-.05c.03-.08.1-.11.17-.08s.12.09.12.2c-.05.13.13.28.33.38s.46.15.56.09c.02-.02.04-.05.04-.07s0-.06-.02-.09c-.04-.05-.08-.19-.11-.33s-.05-.29-.06-.36c-.07-.3,0-.45.13-.51s.37-.05.63-.03c.52.12.52.28.4.49ZM68.8,46.49c.13-.01.26-.06.4-.12-.04-.08-.1-.14-.14-.21s-.06-.13-.04-.22c.17-.09.35-.13.54-.14s.38,0,.58-.02c.02.13.05.26.09.38s.11.23.22.32c-.29.27-.64.38-1,.47s-.73.15-1.07.3c-.07,0-.11-.06-.14-.11s-.07-.09-.15-.09c-.06,0-.12-.01-.16-.05s-.08-.09-.11-.15c.04-.1.14-.12.23-.16s.16-.09.15-.23c0-.02.05-.04.09-.05s.09-.01.12.01c.13.06.26.07.39.06ZM79.31,38.77c-.13-.29-.36-1.24-.66-2.03s-.68-1.42-1.13-1.07c2.06,3.84,2.4,8.29,1.34,12.39s-3.54,7.84-7.11,10.27c-1.05.63-2.22,1.47-3.44,1.98s-2.49.68-3.73-.02c.8-3.12,3.12-4.02,5.45-5.63s4.66-3.92,5.49-9.87c-.1-.05-.17-.09-.24-.12s-.14-.06-.23-.07c-.12.83-.28,1.65-.5,2.44s-.47,1.58-.78,2.35c.33-.88.39-2.71.39-4.36s-.08-3.11-.02-3.26c-.03-.05-.07-.08-.13-.13s-.13-.13-.24-.27c.02.33.02.56.01.82s-.01.54-.01.98h-11.64v-12.14h11.43v6.85s0,.11.02.21.03.21.05.27c.08-.12.13-.19.16-.22s.07-.06.12-.1v-7.36h-23.96v3.1s-.02,3.1-.02,3.1h.35v-5.85h11.5v12.14h-11.09s-.01-.03-.01-.08,0-.1-.02-.08c0-.02-.02.03-.04.08s-.04.1-.04.08h-.31c0-.28,0-.51,0-.67s0-.25,0-.26h-.18s-.18-.01-.18-.01c-.13.46,0,2.59.31,4.77s.82,4.42,1.44,5.09c-1.25-1.21-2.07-2.9-2.52-4.68s-.53-3.67-.3-5.29c0,0-.06-.04-.15-.12s-.21-.18-.34-.29c-.39,2.28-.16,4.55.58,6.66s1.97,4.05,3.57,5.69c.14.15.29.14.44.09s.32-.16.49-.2c-.03-.04-.09-.08-.15-.14s-.12-.12-.17-.19c.06.07.12.13.18.18s.1.11.15.15l-.09-.25-.09-.25c-1.26-.96-1.99-2.81-2.41-4.74s-.54-3.93-.57-5.19h11.5s0,3.81,0,7.62,0,7.63-.01,7.64c-1.22-.06-2.25-.75-3.26-1.44s-2.02-1.35-3.2-1.37c1.7,1.01,4.09,2.72,6.56,3.92s4.99,1.88,6.95.82c.02.02.02.03.03.03s.01.02.03.03c-.21.26-.67.63-1.17.91s-1.02.46-1.34.33c-.53-.32-1.21-.19-1.66.17s-.67.95-.29,1.55c.05.07.09.14.1.21s0,.15-.06.24c-2.12-.2-4.13-.93-6.06-1.89s-3.77-2.13-5.56-3.21c-.02.02-.02.03-.03.03s-.01.02-.03.03c.68.92,2.25,1.96,3.64,2.77s2.62,1.38,2.62,1.38v1.37s0,1.37,0,1.37c0,0,.08.05.18.12s.23.16.34.22v-2.97c.64.22,1.61.53,2.42.79s1.46.46,1.46.46v.93s0,.93,0,.93l.25-.16.25-.16v-.69s-.03-.69-.03-.69l.35-.1.35-.1c.22-.06.4-.2.52-.37s.17-.39.15-.62c-.1-.05-.19-.13-.24-.23s-.07-.23-.04-.37c.05-.27.24-.41.45-.44s.44.05.57.21c.27.12.53.02.79-.13s.52-.35.78-.42c.37-.22.78-.43,1.14-.69s.67-.57.85-1c.03-.11.08-.19.14-.26s.13-.13.22-.18c.74-.42,1.48-.87,2.17-1.36s1.36-1.03,1.97-1.64c2.59-2.19,4.34-5.17,5.23-8.41s.91-6.74.04-9.96ZM62.12,43.54h11.64c.48,4.45-.59,7.42-2.7,9.66s-5.25,3.76-8.94,5.31v-14.97ZM62.33,59.43c.41-.37.76-.61,1.14-.8s.79-.31,1.32-.44c-.15.33-.29.65-.43.97s-.29.64-.43.98c-.27-.12-.53-.24-.79-.35s-.53-.24-.79-.35ZM36.85,65.53c-.11.43-.46.82-1.01.89-.09-.29-.18-.7-.27-1.12s-.16-.84-.2-1.13c.19-.03.37-.03.54,0s.31.08.45.16c.45.29.6.77.49,1.21ZM51.32,60.28h0c-3.29,0-6.58.71-9.87,1.42s-6.58,1.41-9.87,1.41c-.4,0-.79-.01-1.19-.03s-.79-.05-1.19-.1c1.02.81,1.5,2.02,2.09,3.03s1.3,1.82,2.78,1.82c.06,0,.13,0,.2,0s.14,0,.21-.01c2.02-.22,4.03-.61,6.04-1.03s4-.86,5.99-1.18c.34-.05,1.33-.28,2.48-.49s2.45-.42,3.41-.42c.35,0,.65.03.88.09s.4.16.48.3c.1.19-.17.56-.47.89s-.63.62-.64.64c0,0,0,.01,0,.01s0,0,.02,0c.06,0,.28-.1.54-.25s.58-.34.85-.52c1.07-.77.49-2.16-.42-3.36s-2.13-2.2-2.32-2.2ZM37.44,65.74c-.18.43-.54.69-.95.86s-.89.26-1.31.33c.02-.13-.1-.81-.24-1.49s-.31-1.35-.39-1.46c.72-.31,1.61-.32,2.23-.02s.98.89.67,1.78ZM38.3,66.26c.02-.43-.04-.98-.15-1.51s-.28-1.06-.48-1.45l.42-.09.42-.09c-.02.43.04.98.15,1.51s.28,1.06.48,1.45l-.42.09-.42.09ZM41.53,65.56l-.86.19-.86.19c.02-.13-.11-.8-.27-1.46s-.33-1.32-.4-1.43l.91-.2.91-.2-.07.3-.07.3c-.13-.04-.26-.05-.41-.05s-.31.02-.47.05l.1.44.1.44.5-.11.5-.11.08.21.08.21c-.1-.02-.3.01-.51.05s-.43.09-.57.11l.11.46.11.46c.25-.05.47-.12.68-.21s.39-.18.55-.29h0s0,0,0,0l-.06.32-.06.32ZM43.3,65.29c-.63.01-.99-.43-1.23-.98s-.36-1.23-.51-1.67l.3-.06.3-.06c.15.39.2,1.03.38,1.55s.48.91,1.13.79c.47-.21.51-.69.43-1.2s-.3-1.06-.35-1.42l.3-.04.3-.04c.11.6.31,1.41.24,2.06s-.39,1.14-1.3,1.08ZM48.3,64.39l-.86.2-.86.2c.02-.13-.12-.8-.28-1.46s-.34-1.32-.41-1.43l.91-.21.91-.21-.07.31-.07.31c-.13-.03-.26-.05-.41-.05s-.3.02-.47.05l.1.44.1.44.5-.12.5-.12.08.21.08.21c-.1-.02-.3.02-.51.06s-.43.09-.57.12l.11.46.11.46c.25-.06.47-.13.68-.21s.39-.18.55-.29h0s0,0,0,0l-.06.32-.06.32ZM50.11,61.46l.25,1.25.25,1.25-.29.05-.29.05-.25-1.25-.25-1.25c-.18.03-.32.05-.47.08s-.32.09-.56.19v-.28s-.02-.28-.02-.28l1.24-.16,1.24-.16.09.24.09.24c-.11-.04-.37-.04-.6-.02s-.42.04-.42.04ZM82.59,64.33c-.1.54-.53,1.01-1.17.88.04-.28.11-.68.19-1.08s.17-.79.24-1.07c.63.13.85.73.75,1.27ZM87.36,65.22c-.1.52-.43.98-.93.86-.41-.16-.54-.76-.44-1.29s.43-.98.92-.86c.41.17.54.76.45,1.29ZM84.83,64.21c-.08.28-.38.51-.81.44l.15-.55.15-.55c.45.07.59.38.5.66ZM76.84,63.33c-.12.54-.48,1-1,.86-.43-.18-.55-.8-.43-1.35s.48-1,.99-.86c.44.19.56.81.44,1.35ZM91.15,63.09c-.41,0-.82,0-1.16-.01s-.64-.02-.83-.03c-2.17-.21-4.33-.63-6.49-1.08s-4.32-.93-6.49-1.28c-.63-.1-1.19-.19-1.72-.26s-1-.12-1.44-.12c-.92,0-1.69.2-2.42.79s-1.41,1.58-2.15,3.16c-.32.6.06,1.19.56,1.63s1.15.74,1.39.77c-.87-.74-1.15-1.22-1.05-1.52s.6-.41,1.29-.41c.95,0,2.26.21,3.42.43s2.16.45,2.49.49c1.99.32,3.98.76,5.99,1.18s4.02.81,6.04,1.03c.07,0,.14.01.21.01s.13,0,.2,0c1.48,0,2.19-.81,2.78-1.82s1.07-2.22,2.09-3.03c-.18.02-.57.03-1.06.04s-1.07.02-1.63.02ZM74.81,61.35s-.16.68-.26,1.34-.18,1.33-.17,1.45l-.33-.06-.33-.06c.06-.11.13-.59.18-1.05s.09-.89.09-.89l-.57.88-.57.88-.33-1-.33-1s-.07.36-.14.77-.14.89-.15,1.12l-.33-.04-.33-.04c.1-.17.26-.89.39-1.56s.23-1.31.23-1.31l.34.06.34.06c0,.07.14.53.27.98s.26.88.26.88c0,0,.22-.38.45-.76s.47-.78.49-.82l.4.07.4.07h0s0,.01,0,.01ZM77.25,63.53c-.3,1.01-1.03,1.24-1.6.99s-.98-.98-.63-1.88c.3-.98,1.03-1.21,1.6-.97s.98.95.64,1.86ZM79.55,65.3c-.1-.02-.43-.59-.73-1.16s-.58-1.13-.58-1.13c0,0-.07.44-.14.89s-.16.92-.19.98l-.25-.04-.25-.04.29-1.37.29-1.37.28.04.28.04s.22.52.44.99.44.93.44.93c0,0,.07-.37.15-.77s.16-.8.17-.87l.21.06.21.06-.3,1.38-.3,1.38ZM82.14,65.54c-.2.07-.44.06-.68.03s-.48-.09-.69-.13l.28-1.41.28-1.41c.91-.06,1.56.5,1.76,1.16s-.06,1.42-.94,1.75ZM85.39,64.24c-.04.16-.12.29-.24.4s-.27.19-.47.25c.08.28.15.46.23.65s.18.39.32.69h0s0,.01,0,.01l-.22-.03-.22-.03s-.21-.24-.38-.49-.35-.56-.44-.77c-.05.17-.1.37-.13.57s-.05.38-.03.54l-.38-.06-.38-.06c.07-.11.25-.74.41-1.37s.3-1.27.29-1.39c.33.04.78.09,1.13.24s.59.4.49.84ZM86.84,66.47c-.84.16-1.26-.47-1.3-1.19s.3-1.52.97-1.72c.84-.18,1.26.45,1.31,1.18s-.3,1.54-.98,1.73ZM88.58,64.82c-.03.25-.11.63-.16,1.01s-.09.75-.05.99l-.33-.05-.33-.05c.14-.37.27-.87.35-1.37s.12-1.01.09-1.41l.33.05.33.05c-.05.11-.1.23-.14.36s-.07.27-.09.42ZM90.13,64.69s-.1.54-.19,1.11-.18,1.15-.17,1.25l-.33-.06-.33-.06s.09-.47.21-1,.24-1.11.29-1.32c-.12-.02-.24-.03-.37-.02s-.26.04-.39.09h0s0,0,0,0l.13-.27.13-.27.89.16.89.16.06.3.06.3c-.07-.07-.23-.15-.4-.22s-.35-.12-.48-.14Z"/>
  </g>
  <g id="Name">
    <path d="M23.58,89.17h12.13c10.89,0,16.98,5.49,16.98,16.83s-5.2,18.51-16.98,18.51h-12.13v-35.34ZM28.28,120.56h7.82c3.22,0,11.88-.89,11.88-13.91,0-8.42-3.12-13.51-11.78-13.51h-7.92v27.42ZM78.54,116.4c-1.14,5.69-5.15,8.71-10.94,8.71-8.17,0-12.03-5.69-12.28-13.46,0-7.72,5.05-13.32,12.03-13.32,9.06,0,11.83,8.46,11.58,14.65h-19.16c-.15,4.46,2.38,8.42,7.97,8.42,3.51,0,5.89-1.63,6.63-5h4.16ZM74.48,109.27c-.25-4.01-3.17-7.23-7.38-7.23s-7.08,3.27-7.33,7.23h14.7ZM82.46,98.93h4.21v3.46h.1c1.39-2.82,4.6-4.06,8.17-4.06,7.87,0,11.78,6.24,11.78,13.46s-3.86,13.32-11.68,13.32c-2.57,0-6.43-.99-8.27-4.01h-.1v13.22h-4.21v-35.39ZM94.34,102.04c-5.69,0-7.82,4.9-7.82,9.65,0,5,2.28,9.7,8.07,9.7s7.67-4.9,7.67-9.9-2.48-9.45-7.92-9.45ZM133.07,124.42c-.74.45-1.78.69-3.02.69-2.18,0-3.56-1.19-3.56-3.96-2.33,2.77-5.44,3.96-9.01,3.96-4.65,0-8.46-2.03-8.46-7.18,0-5.79,4.31-7.08,8.66-7.87,4.6-.94,8.61-.54,8.61-3.76,0-3.71-3.07-4.26-5.69-4.26-3.56,0-6.19,1.09-6.39,4.85h-4.21c.25-6.34,5.1-8.56,10.84-8.56,4.6,0,9.6,1.04,9.6,7.03v13.17c0,1.98,0,2.87,1.34,2.87.4,0,.84-.1,1.29-.25v3.27ZM126.24,111.3c-3.27,2.43-12.77.05-12.77,6.34,0,2.77,2.38,3.76,4.95,3.76,5.54,0,7.82-3.42,7.82-5.79v-4.31ZM135.93,98.93h3.96v5.4h.1c2.03-4.16,4.85-6.14,9.4-5.99v4.46c-6.78,0-9.26,3.81-9.26,10.35v11.38h-4.21v-25.59ZM159,98.93h5.1v3.71h-5.1v15.89c0,1.98.54,2.28,3.17,2.28h1.93v3.71h-3.22c-4.36,0-6.09-.89-6.09-5.59v-16.29h-4.36v-3.71h4.36v-7.67h4.21v7.67ZM167.23,98.93h3.96v3.76h.1c1.93-2.92,4.65-4.36,8.27-4.36,3.17,0,5.99,1.19,7.03,4.36,1.73-2.77,4.7-4.36,8.02-4.36,5.1,0,8.51,2.13,8.51,7.42v18.76h-4.21v-16.78c0-3.17-.84-5.69-4.95-5.69s-6.68,2.57-6.68,6.53v15.94h-4.21v-16.78c0-3.32-1.04-5.69-4.8-5.69-4.95,0-6.83,4.55-6.83,6.53v15.94h-4.21v-25.59ZM230.09,116.4c-1.14,5.69-5.15,8.71-10.94,8.71-8.17,0-12.03-5.69-12.28-13.46,0-7.72,5.05-13.32,12.03-13.32,9.06,0,11.83,8.46,11.58,14.65h-19.16c-.15,4.46,2.38,8.42,7.97,8.42,3.51,0,5.89-1.63,6.63-5h4.16ZM226.03,109.27c-.25-4.01-3.17-7.23-7.38-7.23s-7.08,3.27-7.33,7.23h14.7ZM233.94,98.93h3.96v4.06h.1c1.78-3.17,4.6-4.65,8.32-4.65,6.73,0,8.81,3.86,8.81,9.36v16.83h-4.21v-17.33c0-3.17-1.98-5.15-5.2-5.15-5.1,0-7.57,3.42-7.57,8.02v14.45h-4.21v-25.59ZM265.93,98.93h5.1v3.71h-5.1v15.89c0,1.98.54,2.28,3.17,2.28h1.93v3.71h-3.22c-4.36,0-6.09-.89-6.09-5.59v-16.29h-4.36v-3.71h4.36v-7.67h4.21v7.67ZM24.62,155.89h-4.31v-3.71h4.31v-3.81c0-4.16,2.48-6.34,7.08-6.34.79,0,1.93.15,2.72.4v3.66c-.74-.25-1.63-.35-2.38-.35-2.03,0-3.22.64-3.22,2.87v3.56h4.95v3.71h-4.95v21.88h-4.21v-21.88ZM46.95,151.58c8.12,0,12.42,5.89,12.42,13.42s-4.31,13.36-12.42,13.36-12.42-5.89-12.42-13.36,4.31-13.42,12.42-13.42ZM46.95,174.65c4.41,0,7.97-3.46,7.97-9.65s-3.56-9.7-7.97-9.7-7.97,3.51-7.97,9.7,3.56,9.65,7.97,9.65ZM63.09,152.18h3.96v5.4h.1c2.03-4.16,4.85-6.14,9.4-5.99v4.46c-6.78,0-9.26,3.81-9.26,10.35v11.38h-4.21v-25.59ZM93.18,142.42h24.4v3.96h-19.7v11.24h18.36v3.96h-18.36v12.23h19.85v3.96h-24.55v-35.34ZM121.12,152.18h3.96v4.06h.1c1.78-3.17,4.6-4.65,8.32-4.65,6.73,0,8.81,3.86,8.81,9.36v16.83h-4.21v-17.33c0-3.17-1.98-5.15-5.2-5.15-5.1,0-7.57,3.42-7.57,8.02v14.45h-4.21v-25.59ZM158.02,177.77h-4.5l-9.5-25.59h4.7l7.18,21.33h.1l6.98-21.33h4.41l-9.36,25.59ZM174.37,147.57h-4.21v-5.15h4.21v5.15ZM170.17,152.18h4.21v25.59h-4.21v-25.59ZM179.45,152.18h3.96v5.4h.1c2.03-4.16,4.85-6.14,9.41-5.99v4.46c-6.78,0-9.26,3.81-9.26,10.35v11.38h-4.21v-25.59ZM205.81,151.58c8.12,0,12.42,5.89,12.42,13.42s-4.31,13.36-12.42,13.36-12.42-5.89-12.42-13.36,4.31-13.42,12.42-13.42ZM205.81,174.65c4.41,0,7.97-3.46,7.97-9.65s-3.56-9.7-7.97-9.7-7.97,3.51-7.97,9.7,3.56,9.65,7.97,9.65ZM222.02,152.18h3.96v4.06h.1c1.78-3.17,4.6-4.65,8.32-4.65,6.73,0,8.81,3.86,8.81,9.36v16.83h-4.21v-17.33c0-3.17-1.98-5.15-5.2-5.15-5.1,0-7.57,3.42-7.57,8.02v14.45h-4.21v-25.59ZM248.29,152.18h3.96v3.76h.1c1.93-2.92,4.65-4.36,8.27-4.36,3.17,0,5.99,1.19,7.03,4.36,1.73-2.77,4.7-4.36,8.02-4.36,5.1,0,8.51,2.13,8.51,7.42v18.76h-4.21v-16.78c0-3.17-.84-5.69-4.95-5.69s-6.68,2.57-6.68,6.53v15.94h-4.21v-16.78c0-3.32-1.04-5.69-4.8-5.69-4.95,0-6.83,4.55-6.83,6.53v15.94h-4.21v-25.59ZM311.15,169.65c-1.14,5.69-5.15,8.71-10.94,8.71-8.17,0-12.03-5.69-12.28-13.46,0-7.72,5.05-13.32,12.03-13.32,9.06,0,11.83,8.46,11.58,14.65h-19.16c-.15,4.46,2.38,8.42,7.97,8.42,3.51,0,5.89-1.63,6.63-5h4.16ZM307.09,162.52c-.25-4.01-3.17-7.23-7.38-7.23s-7.08,3.27-7.33,7.23h14.7ZM315,152.18h3.96v4.06h.1c1.78-3.17,4.6-4.65,8.32-4.65,6.73,0,8.81,3.86,8.81,9.36v16.83h-4.21v-17.33c0-3.17-1.98-5.15-5.2-5.15-5.1,0-7.57,3.42-7.57,8.02v14.45h-4.21v-25.59ZM347,152.18h5.1v3.71h-5.1v15.89c0,1.98.54,2.28,3.17,2.28h1.93v3.71h-3.22c-4.36,0-6.09-.89-6.09-5.59v-16.29h-4.36v-3.71h4.36v-7.67h4.21v7.67ZM23.58,195.67h23.22v3.96h-18.51v11.24h16.24v3.96h-16.24v16.19h-4.7v-35.34ZM60.28,204.83c8.12,0,12.42,5.89,12.42,13.42s-4.31,13.36-12.42,13.36-12.42-5.89-12.42-13.36,4.31-13.42,12.42-13.42ZM60.28,227.9c4.41,0,7.97-3.46,7.97-9.65s-3.56-9.7-7.97-9.7-7.97,3.51-7.97,9.7,3.56,9.65,7.97,9.65ZM87.66,204.83c8.12,0,12.42,5.89,12.42,13.42s-4.31,13.36-12.42,13.36-12.42-5.89-12.42-13.36,4.31-13.42,12.42-13.42ZM87.66,227.9c4.41,0,7.97-3.46,7.97-9.65s-3.56-9.7-7.97-9.7-7.97,3.51-7.97,9.7,3.56,9.65,7.97,9.65ZM126.88,231.02h-4.21v-3.46h-.1c-1.39,2.82-4.6,4.06-8.17,4.06-7.87,0-11.78-6.24-11.78-13.46s3.86-13.32,11.68-13.32c2.57,0,6.44.99,8.27,4.01h.1v-13.17h4.21v35.34ZM115,227.9c5.69,0,7.82-4.9,7.82-9.65,0-5-2.28-9.7-8.07-9.7s-7.67,4.9-7.67,9.9,2.48,9.46,7.92,9.46ZM165.64,226.61c-2.13,3.32-6.14,5-10,5-9.55,0-11.04-6.78-11.04-9.65,0-5.49,3.76-8.32,8.27-10.69-1.98-2.77-3.91-4.75-3.91-8.32,0-3.81,2.82-7.28,7.97-7.28,4.41,0,8.56,2.43,8.56,7.23,0,4.26-3.22,7.18-6.63,9.16l6.39,7.77c.64-1.78,1.04-3.61,1.14-5.5h4.01c-.4,4.26-.89,5.5-2.38,8.71l6.88,7.97h-5.49l-3.76-4.41ZM155.2,213.94c-3.32,1.83-6.14,3.81-6.14,7.97,0,3.56,3.32,5.99,6.73,5.99,3.22,0,5.79-1.63,7.52-4.21l-8.12-9.75ZM161.28,203.15c0-2.03-1.53-3.76-4.06-3.76-1.98,0-4.06,1.19-4.06,3.76,0,2.13,1.88,4.21,3.42,6.14,2.03-1.34,4.7-3.07,4.7-6.14ZM190.79,195.67h16.63c6.68,0,10.74,3.56,10.74,9.26,0,4.31-1.83,7.77-6.14,8.96v.1c4.11.79,4.9,3.86,5.3,7.28.25,3.42.1,7.38,2.08,9.75h-5.25c-1.34-1.44-.59-5.25-1.29-8.71-.54-3.42-1.34-6.39-5.89-6.39h-11.48v15.1h-4.7v-35.34ZM205.29,211.96c4.36,0,8.17-1.14,8.17-6.29,0-3.51-1.88-6.04-6.29-6.04h-11.68v12.33h9.8ZM243.9,231.02h-3.96v-4.06h-.1c-1.78,3.17-4.6,4.65-8.32,4.65-6.73,0-8.81-3.86-8.81-9.36v-16.83h4.21v17.32c0,3.17,1.98,5.15,5.2,5.15,5.1,0,7.57-3.42,7.57-8.02v-14.45h4.21v25.59ZM248.94,205.43h3.96v5.4h.1c2.03-4.16,4.85-6.14,9.41-5.99v4.46c-6.78,0-9.26,3.81-9.26,10.35v11.38h-4.21v-25.59ZM287.22,230.92c-.74.45-1.78.69-3.02.69-2.18,0-3.56-1.19-3.56-3.96-2.33,2.77-5.45,3.96-9.01,3.96-4.65,0-8.46-2.03-8.46-7.18,0-5.79,4.31-7.08,8.66-7.87,4.6-.94,8.61-.54,8.61-3.76,0-3.71-3.07-4.26-5.69-4.26-3.56,0-6.19,1.09-6.39,4.85h-4.21c.25-6.34,5.1-8.56,10.84-8.56,4.6,0,9.6,1.04,9.6,7.03v13.17c0,1.98,0,2.87,1.34,2.87.4,0,.84-.1,1.29-.25v3.27ZM280.39,217.8c-3.27,2.43-12.77.05-12.77,6.34,0,2.77,2.38,3.76,4.95,3.76,5.54,0,7.82-3.42,7.82-5.79v-4.31ZM290.33,195.67h4.21v35.34h-4.21v-35.34ZM324.14,195.67h5.2l13.81,35.34h-5.2l-3.86-10.64h-14.95l-3.96,10.64h-4.85l13.81-35.34ZM320.63,216.41h11.98l-5.89-16.48h-.1l-5.99,16.48ZM346.17,209.14h-4.31v-3.71h4.31v-3.81c0-4.16,2.47-6.34,7.08-6.34.79,0,1.93.15,2.72.4v3.66c-.74-.25-1.63-.35-2.38-.35-2.03,0-3.22.64-3.22,2.87v3.56h4.95v3.71h-4.95v21.88h-4.21v-21.88ZM361.03,209.14h-4.31v-3.71h4.31v-3.81c0-4.16,2.47-6.34,7.08-6.34.79,0,1.93.15,2.72.4v3.66c-.74-.25-1.63-.35-2.38-.35-2.03,0-3.22.64-3.22,2.87v3.56h4.95v3.71h-4.95v21.88h-4.21v-21.88ZM395.28,230.92c-.74.45-1.78.69-3.02.69-2.18,0-3.56-1.19-3.56-3.96-2.33,2.77-5.44,3.96-9.01,3.96-4.65,0-8.46-2.03-8.46-7.18,0-5.79,4.31-7.08,8.66-7.87,4.6-.94,8.61-.54,8.61-3.76,0-3.71-3.07-4.26-5.69-4.26-3.56,0-6.19,1.09-6.38,4.85h-4.21c.25-6.34,5.1-8.56,10.84-8.56,4.6,0,9.6,1.04,9.6,7.03v13.17c0,1.98,0,2.87,1.34,2.87.4,0,.84-.1,1.29-.25v3.27ZM388.45,217.8c-3.27,2.43-12.77.05-12.77,6.34,0,2.77,2.38,3.76,4.95,3.76,5.54,0,7.82-3.42,7.82-5.79v-4.31ZM402.6,200.82h-4.21v-5.15h4.21v5.15ZM398.39,205.43h4.21v25.59h-4.21v-25.59ZM407.68,205.43h3.96v5.4h.1c2.03-4.16,4.85-6.14,9.4-5.99v4.46c-6.78,0-9.26,3.81-9.26,10.35v11.38h-4.21v-25.59ZM426.44,222.95c.15,3.76,3.46,4.95,6.88,4.95,2.62,0,6.19-.59,6.19-3.81,0-6.58-16.73-2.13-16.73-11.98,0-5.15,5.05-7.28,9.55-7.28,5.74,0,10.1,1.78,10.49,8.02h-4.21c-.25-3.27-3.22-4.31-5.94-4.31-2.52,0-5.44.69-5.44,3.27,0,2.97,4.45,3.56,8.37,4.46,4.21.94,8.37,2.38,8.37,7.28,0,6.14-5.69,8.07-10.89,8.07-5.74,0-10.59-2.33-10.84-8.66h4.21ZM363.05,172.37v4.99c0,1.88-.42,3.49-1.26,4.84-.84,1.35-2.19,2.3-4.06,2.87v-2.47c.55-.2,1.01-.49,1.38-.87.37-.38.67-.79.89-1.23.22-.45.38-.9.46-1.36s.1-.89.07-1.28h-2.85v-5.48h5.37Z"/>
  </g>
</svg>